<svg width="53" height="60" viewBox="0 0 53 60" version="1.1" xmlns="http://www.w3.org/2000/svg" xmlns:xlink="http://www.w3.org/1999/xlink">
<title>edge-5</title>
<desc>Created using Figma</desc>
<g id="Canvas" transform="translate(-1235 -631)">
<g id="edge-5">
<g id="Group">
<g id="Group">
<g id="Vector">
<use xlink:href="#path0_fill" transform="translate(1258.68 649.546)" fill="#275DAD"/>
</g>
</g>
<g id="Vector">
<use xlink:href="#path1_fill" transform="translate(1240.19 657.898)" fill="#275DAD"/>
</g>
<g id="Vector">
<use xlink:href="#path2_fill" transform="translate(1240.19 666.709)" fill="#275DAD"/>
</g>
<g id="Vector">
<use xlink:href="#path3_fill" transform="translate(1240.19 684.332)" fill="#275DAD"/>
</g>
<g id="Vector">
<use xlink:href="#path4_fill" transform="translate(1265.97 684.332)" fill="#275DAD"/>
</g>
<g id="Vector">
<use xlink:href="#path5_fill" transform="translate(1235 631)" fill="#275DAD"/>
</g>
<g id="Vector">
<use xlink:href="#path6_fill" transform="translate(1240.25 636.236)" fill="#275DAD"/>
</g>
<g id="Vector">
<use xlink:href="#path7_fill" transform="translate(1242.44 639.788)" fill="#275DAD"/>
</g>
<g id="Vector">
<use xlink:href="#path8_fill" transform="translate(1248.46 675.521)" fill="#275DAD"/>
</g>
<g id="Vector">
<use xlink:href="#path9_fill" transform="translate(1240.29 675.521)" fill="#275DAD"/>
</g>
</g>
</g>
</g>
<defs>
<path id="path0_fill" d="M 26.0363 4.20546L 25.4291 3.73378L 26.7663 1.96823L 27.3735 2.43991L 26.0363 4.20546ZM 7.37262 31.1316L 4.5872 28.9674L 23.3137 4.24261L 26.0993 6.40683L 7.37262 31.1316ZM 6.0896 32.2871L 2.32314 34.8775L 3.81767 30.5218L 6.0896 32.2871ZM 28.9088 1.48026C 28.9085 1.48015 28.9084 1.48003 28.9082 1.47991L 27.2842 0.218037C 26.8268 -0.136923 26.1693 -0.0492666 25.8185 0.413858L 24.0913 2.69433L 24.0114 2.63233C 23.4552 2.19991 22.6551 2.30655 22.2278 2.87034L 2.73469 28.6073C 2.73458 28.6075 2.73446 28.6076 2.73435 28.6079C 2.73423 28.608 2.73412 28.6082 2.734 28.6083C 2.71884 28.6284 2.70692 28.6504 2.69373 28.6716C 2.68309 28.6886 2.67094 28.7046 2.66157 28.7221C 2.6404 28.7621 2.62223 28.8037 2.60754 28.8467L 0.0579183 36.2771C 0.0578026 36.2775 0.057688 36.2778 0.0575723 36.2782L 0.0559516 36.283C -0.0865937 36.6985 0.0493572 37.1574 0.393919 37.4251C 0.574299 37.5651 0.789737 37.6357 1.00564 37.6357C 1.20222 37.6357 1.39926 37.5771 1.57038 37.4594L 1.57524 37.4561C 1.57535 37.4561 1.57536 37.456 1.57547 37.456L 8.00054 33.037C 8.03664 33.0121 8.071 32.9841 8.10317 32.9535C 8.1167 32.9407 8.12816 32.9258 8.14077 32.9121C 8.15754 32.8939 8.17548 32.8766 8.19064 32.8572C 8.19179 32.8557 8.19272 32.8541 8.19388 32.8526C 8.19446 32.8518 8.19527 32.8511 8.19596 32.8503L 25.7392 9.68784L 26.262 10.094L 19.0763 19.5813C 18.7929 19.9555 18.8627 20.4915 19.2321 20.7785C 19.3852 20.8974 19.5654 20.955 19.7446 20.955C 19.9978 20.955 20.2481 20.8399 20.4141 20.6207L 27.8194 10.8433C 28.2641 10.2562 28.1545 9.4121 27.5746 8.96151L 26.7655 8.3328L 27.6893 7.11311C 28.1159 6.54956 28.0104 5.73933 27.454 5.30679L 27.3742 5.2448L 29.1012 2.96456C 29.452 2.50179 29.3657 1.83593 28.9088 1.48026Z"/>
<path id="path1_fill" d="M 34.9217 0.853945C 34.9217 0.382383 34.5443 -1.43051e-07 34.0786 -1.43051e-07L 0.843123 -1.43051e-07C 0.377421 -1.43051e-07 -1.12991e-07 0.382266 -1.12991e-07 0.853945C -1.12991e-07 1.32551 0.377421 1.70789 0.843123 1.70789L 34.0786 1.70789C 34.5443 1.70777 34.9217 1.32551 34.9217 0.853945Z"/>
<path id="path2_fill" d="M 26.8655 0.853944C 26.8655 0.382381 26.4881 1.43051e-07 26.0224 1.43051e-07L 0.843123 1.43051e-07C 0.377421 1.43051e-07 -1.12991e-07 0.382264 -1.12991e-07 0.853944C -1.12991e-07 1.32551 0.377421 1.70789 0.843123 1.70789L 26.0224 1.70789C 26.4881 1.70777 26.8655 1.32551 26.8655 0.853944Z"/>
<path id="path3_fill" d="M 0.843123 1.70789L 16.0558 1.70789C 16.5215 1.70789 16.8989 1.32563 16.8989 0.853947C 16.8989 0.382267 16.5215 -9.44138e-07 16.0558 -9.44138e-07L 0.843123 -9.44138e-07C 0.377421 -9.44138e-07 -1.12991e-07 0.382267 -1.12991e-07 0.853947C -1.12991e-07 1.32563 0.377421 1.70789 0.843123 1.70789Z"/>
<path id="path4_fill" d="M 8.29956 1.70789C 8.76526 1.70789 9.14268 1.32563 9.14268 0.853947C 9.14268 0.382267 8.76526 -9.44138e-07 8.29956 -9.44138e-07L 0.843124 -9.44138e-07C 0.377422 -9.44138e-07 -9.6042e-07 0.382267 -9.6042e-07 0.853947C -9.6042e-07 1.32563 0.377422 1.70789 0.843124 1.70789L 8.29956 1.70789Z"/>
<path id="path5_fill" d="M 32.1362 2.91539L 42.7197 13.6348L 32.2314 13.6348C 32.1789 13.6348 32.1361 13.5914 32.1361 13.5382L 32.1361 2.91539L 32.1362 2.91539ZM 44.7551 40.2414C 44.2894 40.2414 43.9119 40.6236 43.9119 41.0953L 43.9119 58.2265C 43.9119 58.2627 43.8828 58.2922 43.8469 58.2922L 1.75116 58.2922C 1.7154 58.2922 1.68613 58.2627 1.68613 58.2265L 1.68613 1.77352C 1.68613 1.7373 1.71529 1.70777 1.75116 1.70777L 30.4501 1.70777L 30.4501 13.5383C 30.4501 14.5332 31.2492 15.3427 32.2316 15.3427L 43.9121 15.3427L 43.9121 20.2717C 43.9121 20.7432 44.2895 21.1256 44.7552 21.1256C 45.2209 21.1256 45.5983 20.7434 45.5983 20.2717L 45.5983 14.4888C 45.5983 14.4791 45.5973 14.4696 45.5969 14.46C 45.5966 14.4504 45.5961 14.4409 45.5955 14.4314C 45.5931 14.395 45.5892 14.3587 45.5822 14.3232C 45.5821 14.3229 45.5821 14.3225 45.5821 14.3222C 45.575 14.286 45.5647 14.2507 45.5532 14.2159C 45.5503 14.207 45.5472 14.1983 45.5439 14.1895C 45.5317 14.1565 45.5181 14.1241 45.5019 14.0929C 45.5011 14.0912 45.5004 14.0895 45.4996 14.0878C 45.4825 14.0552 45.4625 14.0241 45.4412 13.9938C 45.4359 13.9862 45.4303 13.9787 45.4247 13.9713C 45.4021 13.9413 45.3782 13.9121 45.3515 13.8852L 31.8893 0.250078C 31.8626 0.223125 31.8339 0.198867 31.8043 0.175898C 31.7969 0.170156 31.7895 0.164531 31.7818 0.159023C 31.752 0.137578 31.7214 0.117305 31.6893 0.100078C 31.6873 0.0990234 31.6853 0.0983203 31.6834 0.0972656C 31.6528 0.0810938 31.6212 0.0673828 31.5889 0.0551953C 31.58 0.0517969 31.5712 0.0486328 31.5622 0.0454688C 31.5281 0.0338672 31.4935 0.0235547 31.4581 0.0164062C 31.4568 0.0161719 31.4555 0.0160547 31.4543 0.0158203C 31.4202 0.00914063 31.3855 0.00515625 31.3506 0.0028125C 31.3405 0.00210938 31.3306 0.00164062 31.3205 0.00128906C 31.3114 0.00105469 31.3023 0 31.2931 0L 1.75116 0C 0.785619 0 0 0.795586 0 1.77352L 0 58.2265C 0 59.2044 0.785503 60 1.75116 60L 43.847 60C 44.8126 60 45.5982 59.2044 45.5982 58.2265L 45.5982 41.0952C 45.5982 40.6236 45.2208 40.2414 44.7551 40.2414Z"/>
<path id="path6_fill" d="M 14.9424 8.41538C 15.1671 8.41538 15.3912 8.32503 15.5572 8.1462C 15.8759 7.80249 15.8593 7.26202 15.5198 6.93917L 8.47004 0.231592C 8.1455 -0.0771973 7.64011 -0.0771973 7.31568 0.231592L 0.265938 6.93917C -0.0735324 7.26202 -0.0901938 7.80249 0.228566 8.1462C 0.547442 8.48979 1.08083 8.50679 1.4203 8.18394L 7.89281 2.02562L 14.3653 8.18394C 14.5281 8.33862 14.7356 8.41538 14.9424 8.41538Z"/>
<path id="path7_fill" d="M 9.73196 11.1929L 8.01343 11.1929L 8.01343 7.69172C 8.01343 7.04836 7.4967 6.525 6.86161 6.525L 4.55659 6.525C 3.92138 6.525 3.40477 7.04836 3.40477 7.69172L 3.40477 11.1929L 1.68613 11.1929L 1.68613 5.64469L 5.70899 1.81699L 9.73184 5.64469L 9.73184 11.1929L 9.73196 11.1929ZM 6.3273 11.1929L 5.09079 11.1929L 5.09079 8.23277L 6.3273 8.23277L 6.3273 11.1929ZM 4.75479 0.381797L 0.439438 4.4877C 0.160132 4.75348 -3.3191e-07 5.12848 -3.3191e-07 5.51648L -3.3191e-07 11.4891C -3.3191e-07 12.2674 0.625256 12.9007 1.39375 12.9007L 10.0242 12.9007C 10.7927 12.9007 11.418 12.2674 11.418 11.4891L 11.418 5.51648C 11.418 5.12848 11.2578 4.75348 10.9784 4.4877L 6.6633 0.381797C 6.12829 -0.127266 5.2898 -0.127266 4.75479 0.381797Z"/>
<path id="path8_fill" d="M 11.091 0.853947C 11.091 0.382385 10.7136 -4.00543e-07 10.2479 -4.00543e-07L 0.843123 -4.00543e-07C 0.377421 -4.00543e-07 2.68353e-07 0.382267 2.68353e-07 0.853947C 2.68353e-07 1.32563 0.377421 1.70789 0.843123 1.70789L 10.2479 1.70789C 10.7136 1.70777 11.091 1.32551 11.091 0.853947Z"/>
<path id="path9_fill" d="M 0.843123 1.70789L 3.77363 1.70789C 4.23933 1.70789 4.61676 1.32563 4.61676 0.853946C 4.61676 0.382266 4.23933 -1.23024e-06 3.77363 -1.23024e-06L 0.843123 -1.23024e-06C 0.377421 -1.23024e-06 -6.00262e-08 0.382266 -6.00262e-08 0.853946C -6.00262e-08 1.32563 0.377537 1.70789 0.843123 1.70789Z"/>
</defs>
</svg>
