<svg width="42" height="49" viewBox="0 0 42 49" version="1.1" xmlns="http://www.w3.org/2000/svg" xmlns:xlink="http://www.w3.org/1999/xlink">
<title>main-2</title>
<desc>Created using Figma</desc>
<g id="Canvas" transform="translate(-380 -475)">
<g id="main-2">
<g id="Group">
<g id="Vector">
<use xlink:href="#path0_fill" transform="translate(380 475)" fill="#FFFFFF"/>
</g>
<g id="Vector">
<use xlink:href="#path1_fill" transform="translate(401.659 487.2)" fill="#FFFFFF"/>
</g>
</g>
<g id="Group 2">
<g id="Vector">
<use xlink:href="#path2_fill" transform="translate(401.758 487.2)" fill="#A8F2FF"/>
</g>
<g id="Vector">
<use xlink:href="#path3_fill" transform="translate(396.804 483.857)" fill="#A8F2FF"/>
</g>
</g>
</g>
</g>
<defs>
<path id="path0_fill" d="M 36.7587 29.7743C 39.4436 27.5425 41.0784 24.22 41.0784 20.637C 41.0784 17.5441 39.959 14.742 38.0862 12.6602L 38.0862 1.04085C 38.0862 0.41046 37.6701 0 37.0557 0L 1.03043 0C 0.406351 0 0 0.420218 0 1.04085L 0 47.959C 0 48.5894 0.416011 49 1.03043 49L 37.046 49C 37.5612 49 38.0765 48.5797 38.0765 47.959L 38.0765 42.0944L 41.9008 40.7633L 36.7587 29.7743ZM 39.1167 20.637C 39.107 24.5 36.9468 27.9427 33.5386 29.5041C 32.3001 30.0245 30.9624 30.3348 29.5158 30.3348C 24.2547 30.3348 19.9151 25.9513 19.9151 20.637C 19.9151 15.3225 24.2547 10.9391 29.5158 10.9391C 34.7771 10.9391 39.0078 15.2127 39.1167 20.637ZM 25.6122 31.6557L 23.5218 40.9636L 19.499 39.5123L 23.6799 30.7751C 24.2943 31.1255 24.9382 31.4255 25.6122 31.6557ZM 36.0156 46.9182L 2.06098 46.9182L 2.06098 2.08182L 36.0156 2.08182L 36.0156 10.8487C 34.1728 9.58795 31.9435 8.85736 29.5158 8.85736C 26.8207 8.85736 24.3539 9.76772 22.3921 11.2992L 22.3921 11.2494L 8.65981 11.2494L 8.65981 13.3308L 20.351 13.3308C 18.7855 15.3426 17.844 17.8847 17.844 20.6267C 17.844 21.5978 17.963 22.5384 18.1812 23.439L 8.65981 23.439L 8.65981 25.5208L 18.9045 25.5208C 19.6175 27.0821 20.6582 28.4431 21.946 29.5441L 19.0927 35.639L 8.65981 35.639L 8.65981 37.7208L 18.1217 37.7208L 16.7047 40.7433L 25.0669 43.6655L 27.6731 32.1561C 28.2672 32.2466 28.8816 32.2964 29.5057 32.2964C 29.9813 32.2964 30.467 32.2666 30.9426 32.2163L 33.5386 43.6558L 36.0156 42.7947L 36.0156 46.9182ZM 35.0842 40.9734L 33.033 31.8257C 33.4592 31.706 34.7771 31.1255 35.0345 30.9755L 39.107 39.5123L 35.0842 40.9734Z"/>
<path id="path1_fill" d="M 5.37 4.90388L -2.7213e-07 5.73456L 3.92356 9.58783L 2.99221 15.0123L 7.84699 12.6103L 12.593 15.1123L 11.6718 9.69779L 15.4865 5.73456L 10.116 4.90388L 7.74828 -4.1996e-07L 5.37 4.90388ZM 8.87754 6.8855L 11.1465 7.19575L 9.49196 8.86699L 9.91812 11.1492L 7.85714 10.1083L 5.79628 11.2592L 6.2123 8.85723L 4.54813 7.19575L 6.81705 6.8855L 7.84699 4.80417L 8.87754 6.8855Z"/>
<path id="path2_fill" d="M 5.37 4.90388L -9.07102e-07 5.73456L 3.92356 9.58783L 2.99221 15.0123L 7.84699 12.6103L 12.593 15.1123L 11.6718 9.69779L 15.4865 5.73456L 10.116 4.90388L 7.74828 -4.1996e-07L 5.37 4.90388ZM 8.87754 6.8855L 11.1465 7.19575L 9.49196 8.86699L 9.91812 11.1492L 7.85714 10.1083L 5.79629 11.2592L 6.2123 8.85723L 4.54813 7.19575L 6.81705 6.8855L 7.84699 4.80417L 8.87754 6.8855Z"/>
<path id="path3_fill" d="M 12.8111 3.13061e-07C 10.116 3.13061e-07 7.6492 0.910368 5.68742 2.44187L 5.68742 2.39208L 3.64626 4.4734C 2.0808 6.48529 1.13929 9.02737 1.13929 11.7694C 1.13929 12.7404 1.25831 13.681 1.47654 14.5817L 2.19982 16.6635C 2.91282 18.2248 3.95353 19.5857 5.24132 20.6868L 2.38794 26.7816L 1.41696 28.8634L -9.07102e-07 31.8859L 8.3622 34.8082L 10.9684 23.2988C 11.5625 23.3892 12.1769 23.439 12.801 23.439C 13.2766 23.439 13.7623 23.4092 14.2379 23.3589L 16.8339 34.7984L 19.3109 33.9373L 21.3717 33.237L 25.1961 31.9059L 20.054 20.917C 22.7389 18.6851 24.3737 15.3627 24.3737 11.7796C 24.3737 8.68672 23.2543 5.88468 21.3815 3.80285L 19.3109 1.99138C 17.4681 0.730597 15.2388 3.13061e-07 12.8111 3.13061e-07ZM 6.81706 32.1062L 2.7943 30.6549L 6.97521 21.9178C 7.58963 22.2682 8.23352 22.5682 8.90751 22.7984L 6.81706 32.1062ZM 22.4023 30.6549L 18.3795 32.1161L 16.3283 22.9684C 16.7545 22.8487 18.0724 22.2682 18.3297 22.1182L 22.4023 30.6549ZM 22.4119 11.7796C 22.4023 15.6426 20.2421 19.0853 16.8339 20.6467C 15.5954 21.1672 14.2577 21.4774 12.8111 21.4774C 7.55 21.4774 3.21043 17.094 3.21043 11.7796C 3.21043 6.46515 7.55 2.0817 12.8111 2.0817C 18.0724 2.0817 22.3031 6.35531 22.4119 11.7796Z"/>
</defs>
</svg>
