<svg width="10" height="8" viewBox="0 0 10 8" version="1.1" xmlns="http://www.w3.org/2000/svg" xmlns:xlink="http://www.w3.org/1999/xlink">
<title>slider-arrow-next</title>
<desc>Created using Figma</desc>
<g id="Canvas" transform="translate(-1543 -2583)">
<g id="slider-arrow-next">
<use xlink:href="#path0_stroke" transform="matrix(1 -2.44929e-16 2.44929e-16 1 1543 2587)" fill="#262F40"/>
</g>
</g>
<defs>
<path id="path0_stroke" d="M 9.35355 0.353553C 9.54882 0.158291 9.54882 -0.158291 9.35355 -0.353553L 6.17157 -3.53553C 5.97631 -3.7308 5.65973 -3.7308 5.46447 -3.53553C 5.2692 -3.34027 5.2692 -3.02369 5.46447 -2.82843L 8.29289 0L 5.46447 2.82843C 5.2692 3.02369 5.2692 3.34027 5.46447 3.53553C 5.65973 3.7308 5.97631 3.7308 6.17157 3.53553L 9.35355 0.353553ZM 0 0.5L 9 0.5L 9 -0.5L 0 -0.5L 0 0.5Z"/>
</defs>
</svg>
