<svg width="50" height="50" viewBox="0 0 50 50" version="1.1" xmlns="http://www.w3.org/2000/svg" xmlns:xlink="http://www.w3.org/1999/xlink">
<title>edge-6</title>
<desc>Created using Figma</desc>
<g id="Canvas" transform="translate(-1436 -633)">
<g id="edge-6">
<g id="Group">
<g id="Group">
<g id="Vector">
<use xlink:href="#path0_fill" transform="translate(1469.74 669.507)" fill="#275DAD"/>
</g>
<g id="Vector">
<use xlink:href="#path1_fill" transform="translate(1436.13 633)" fill="#275DAD"/>
</g>
<g id="Vector">
<use xlink:href="#path2_fill" transform="translate(1472.72 669.559)" fill="#275DAD"/>
</g>
</g>
<g id="Vector">
<use xlink:href="#path3_fill" transform="translate(1467.74 667.175)" fill="#275DAD"/>
</g>
<g id="Vector">
<use xlink:href="#path4_fill" transform="translate(1452.23 633.863)" fill="#275DAD"/>
</g>
<g id="Vector">
<use xlink:href="#path5_fill" transform="translate(1436 646.935)" fill="#275DAD"/>
</g>
<g id="Vector">
<use xlink:href="#path6_fill" transform="translate(1437.92 674.754)" fill="#275DAD"/>
</g>
<g id="Vector">
<use xlink:href="#path7_fill" transform="translate(1440.25 672.422)" fill="#275DAD"/>
</g>
<g id="Vector">
<use xlink:href="#path5_fill" transform="translate(1436 646.935)" fill="#275DAD"/>
</g>
<g id="Vector">
<use xlink:href="#path5_fill" transform="translate(1436 646.935)" fill="#275DAD"/>
</g>
<g id="Vector">
<use xlink:href="#path8_fill" transform="translate(1442 638.856)" fill="#275DAD"/>
</g>
<g id="Vector">
<use xlink:href="#path9_fill" transform="translate(1459.66 656.347)" fill="#275DAD"/>
</g>
</g>
</g>
</g>
<defs>
<path id="path0_fill" d="M 0.833092 3.3316C 0.583147 3.3316 0.416583 3.24834 0.249921 3.08173C -0.0833065 2.7486 -0.0833065 2.24885 0.249921 1.91571L 1.91625 0.24985C 2.24948 -0.0832838 2.74937 -0.0832838 3.0826 0.24985C 3.41592 0.582983 3.41592 1.08273 3.0826 1.41596L 1.41636 3.08173C 1.2497 3.24834 1.08304 3.3316 0.833092 3.3316Z"/>
<path id="path1_fill" d="M 1.86582 5.27245C 1.28264 7.27144 2.03248 9.52031 3.78209 10.7697C 5.44842 11.9358 7.69793 11.9358 9.36416 10.8529C 10.6139 10.0201 11.447 8.68743 11.6137 7.18809C 11.7803 5.68884 11.1971 4.27285 10.1973 3.19009C 9.44744 2.44047 8.53105 1.94072 7.53127 1.7741L 9.36416 4.93931C 9.53082 5.18919 9.53082 5.43906 9.36416 5.68894L 9.1975 6.10543C 8.36438 7.77119 6.61477 8.77069 4.69849 8.68743L 4.28189 8.68743C 4.03194 8.68743 3.782 8.52082 3.61533 8.27094L 1.86582 5.27245ZM 6.69805 13.3517C 5.36504 13.3517 4.03194 12.9353 2.8656 12.1023C -0.133742 10.0201 -0.883576 6.02207 1.11598 3.02357C 1.28265 2.7737 1.53259 2.60708 1.78253 2.69044C 2.03248 2.69044 2.36571 2.85706 2.44909 3.10693L 4.86516 7.10483C 6.0316 7.18809 7.19794 6.52182 7.69783 5.43896L 5.36505 1.27445C 5.19838 1.02458 5.19838 0.691444 5.36505 0.44157C 5.44833 0.274954 5.69827 0.108436 5.94822 0.0250793C 7.94778 -0.141536 9.94733 0.524829 11.3637 1.94082C 12.7801 3.35681 13.4466 5.27245 13.28 7.27144C 13.1133 9.27044 12.0303 11.0196 10.3639 12.1857C 9.28088 13.0186 7.94778 13.3517 6.69805 13.3517Z"/>
<path id="path2_fill" d="M 6.60694 1.61399C 5.60716 1.61399 4.69076 1.86386 3.85754 2.44687C 2.60782 3.27975 1.7747 4.61248 1.60804 6.11173C 1.44147 7.61098 2.02465 9.02687 3.02443 10.1097C 3.77426 10.8593 4.69075 11.3591 5.69053 11.5256L 3.85754 8.3606C 3.69098 8.11073 3.69098 7.86085 3.85754 7.61098L 4.0242 7.19449C 4.85732 5.52862 6.60693 4.44587 8.52321 4.61248L 8.93982 4.61248C 9.18976 4.61248 9.43971 4.779 9.60627 5.02888L 11.3559 8.02737C 11.9392 6.02838 11.1893 3.7795 9.43971 2.53013C 8.60649 1.94712 7.60671 1.61399 6.60694 1.61399ZM 6.60694 13.2747C 4.85732 13.2747 3.19109 12.6085 1.94136 11.3591C 0.524975 9.94311 -0.141575 8.02737 0.0250871 6.02837C 0.191749 4.02938 1.27481 2.28025 2.94114 1.11424C 5.19065 -0.385009 8.18998 -0.38501 10.4395 1.1975C 13.3554 3.27975 14.1887 7.27775 12.1891 10.2762C 12.0224 10.5261 11.7725 10.6095 11.4393 10.6927C 11.1893 10.6927 10.856 10.5261 10.7727 10.2762L 8.43993 6.27825C 7.1902 6.19499 6.10705 6.86136 5.52387 7.94411L 7.94004 12.0254C 8.1066 12.2752 8.1066 12.6085 7.94004 12.8583C 7.77338 13.1082 7.52343 13.2747 7.27349 13.2747C 7.10682 13.2747 6.85688 13.2747 6.60694 13.2747Z"/>
<path id="path3_fill" d="M 0.833094 2.99854C 0.583149 2.99854 0.416582 2.91519 0.24992 2.74867C -0.0833075 2.41544 -0.0833075 1.91569 0.24992 1.58256L 1.58293 0.249922C 1.91625 -0.0833087 2.41614 -0.0833087 2.74937 0.249922C 3.0826 0.583056 3.0826 1.08281 2.74937 1.41594L 1.41636 2.74867C 1.2497 2.91519 1.08304 2.99854 0.833094 2.99854Z"/>
<path id="path4_fill" d="M 21.8493 22.1505L 24.7654 25.0658C 25.0986 25.3989 25.5985 25.3989 25.9318 25.0658L 31.8471 19.152C 32.0138 18.9854 32.097 18.8189 32.097 18.569C 32.097 18.3191 32.0138 18.1525 31.8471 17.9859L 28.9311 15.0708C 28.6812 15.4039 28.2646 15.5705 27.7647 15.5705C 27.3481 15.5705 26.8482 15.4039 26.515 15.0708C 25.5152 14.0713 25.4319 13.4049 25.4319 12.4887C 25.4319 12.2388 25.4319 11.9057 25.3485 11.4892C 25.2652 10.6563 24.8486 9.82341 24.1822 9.15705L 21.1829 6.15855C 19.4332 4.40943 18.7667 3.74306 16.7671 2.91018C 13.2679 1.32767 9.76867 1.24432 5.01972 2.74356C 7.26922 2.99344 9.26878 3.82632 11.9349 6.40842C 13.9344 8.40742 14.101 11.5725 12.2681 13.8214L 15.8506 17.4029C 16.5172 18.0693 17.267 18.4857 18.1835 18.569C 18.6 18.6523 18.9333 18.6523 19.1833 18.6523C 20.0997 18.6523 20.7662 18.7355 21.766 19.735C 22.0992 20.0683 22.2659 20.568 22.2659 20.9844C 22.3492 21.4842 22.1826 21.9006 21.8493 22.1505ZM 25.3485 27.0648C 24.6821 27.0648 24.0155 26.8149 23.5989 26.3151L 20.683 23.3999C 20.3496 23.0668 20.1831 22.567 20.1831 22.1505C 20.1831 21.734 20.3496 21.3176 20.683 21.0678C 20.0164 20.4847 19.8497 20.4847 19.1833 20.4847C 18.85 20.4847 18.5167 20.4847 18.0168 20.4014C 16.8504 20.2348 15.6841 19.6518 14.7676 18.7355L 10.6852 14.6543C 10.3518 14.3212 10.3518 13.8214 10.6852 13.4882C 12.3514 11.8224 12.4348 9.32366 10.8517 7.74106C 7.51917 4.40943 5.60289 4.40943 1.9371 4.40943L 0.853937 4.40943C 0.437427 4.40943 0.104102 4.15955 0.0208191 3.74306C -0.0624633 3.32657 0.104102 2.99344 0.52071 2.82682C 7.68583 -0.421546 12.6013 -0.838037 17.4337 1.41083C 19.6832 2.41033 20.5163 3.24322 22.2659 4.99234L 25.2652 7.99083C 26.1817 8.90707 26.7649 10.0732 26.9316 11.2392C 27.0981 11.739 27.0981 12.1554 27.0981 12.4886C 27.0981 13.1549 27.0981 13.3216 27.7647 13.9046C 28.0979 13.6547 28.5145 13.4048 28.9311 13.4048C 29.3476 13.4048 29.7643 13.5714 30.0975 13.9046L 33.0135 16.8198C 33.5134 17.3195 33.7634 17.9026 33.7634 18.5689C 33.7634 19.2352 33.5134 19.9016 33.0135 20.318L 27.0981 26.2317C 26.6816 26.8149 26.0151 27.0648 25.3485 27.0648Z"/>
<path id="path5_fill" d="M 27.4939 2.08226L 2.2495 30.3181C 1.8329 30.7346 1.66633 31.151 1.66633 31.6507C 1.66633 32.0672 1.83299 32.4837 2.16622 32.8168L 3.33266 33.8996C 3.99922 34.566 5.08228 34.4827 5.74883 33.8163L 30.9933 5.5805L 27.4939 2.08226ZM 4.49901 36.0652C 3.66589 36.0652 2.83268 35.7321 2.16622 35.149L 0.999779 33.9829C 0.333227 33.3166 0 32.4837 0 31.5675C 0 30.6512 0.333227 29.7351 0.999779 29.0687L 26.8274 0.249875C 26.994 0.0832595 27.1607 7.38727e-07 27.4107 7.38727e-07C 27.6606 7.38727e-07 27.8272 0.0832595 27.9938 0.249875L 32.7428 4.99749C 33.076 5.33063 33.076 5.83038 32.7428 6.16351L 6.91517 35.0657C 6.24862 35.7321 5.33212 36.0652 4.49901 36.0652Z"/>
<path id="path6_fill" d="M 2.58271 3.41496C 2.33276 3.41496 2.1661 3.33161 1.99953 3.16509L 0.24992 1.41596C -0.0833068 1.08273 -0.0833068 0.582984 0.24992 0.249851C 0.583148 -0.0832829 1.08304 -0.0832829 1.41636 0.249851L 3.16598 1.99897C 3.4992 2.3321 3.4992 2.83186 3.16598 3.16509C 2.99931 3.33161 2.83265 3.41496 2.58271 3.41496Z"/>
<path id="path7_fill" d="M 2.58271 3.41494C 2.33276 3.41494 2.1661 3.33168 1.99953 3.16506L 0.249921 1.41594C -0.0833066 1.08281 -0.0833066 0.583057 0.249921 0.249923C 0.583148 -0.0833078 1.08304 -0.0833078 1.41636 0.249923L 3.16598 1.99905C 3.4992 2.33218 3.4992 2.83193 3.16598 3.16506C 2.99931 3.33168 2.83265 3.41494 2.58271 3.41494Z"/>
<path id="path8_fill" d="M 3.166 7.07975C 5.83201 8.66225 8.33146 10.6613 10.8309 13.2433L 13.8302 16.2418L 16.0798 13.743L 13.1638 10.8279C 10.6643 8.32912 8.66479 5.83037 7.08174 3.16501C 6.58185 4.49764 5.74873 5.5805 4.49901 6.41338C 4.0824 6.66326 3.58251 6.91313 3.166 7.07975ZM 13.9136 18.2407C 13.6637 18.2407 13.497 18.1575 13.3304 17.9909L 9.66457 14.4094C 6.58185 11.3276 3.66589 9.162 0.416607 7.49614C 0.166663 7.41288 -1.34081e-07 7.16301 -1.34081e-07 6.91313C -1.34081e-07 6.66326 0.0832824 6.41338 0.249945 6.16351L 0.333227 6.08025C 0.416509 5.91363 0.666454 5.83037 0.833117 5.83037C 1.8329 5.83037 2.74939 5.49714 3.49923 4.99739C 4.91561 4.08125 5.74873 2.582 5.74873 0.916142C 5.74873 0.666267 5.83201 0.499652 5.99868 0.333134L 6.08196 0.249874C 6.3319 0.0832589 6.58185 1.10213e-07 6.83179 1.10213e-07C 7.08174 1.10213e-07 7.33168 0.166616 7.41506 0.41649C 9.0813 3.66486 11.2475 6.5801 14.3301 9.66185L 17.7461 13.0768C 18.0793 13.41 18.0793 13.9097 17.7461 14.2429L 14.4135 17.991C 14.3301 18.0742 14.1636 18.2407 13.9136 18.2407Z"/>
<path id="path9_fill" d="M 2.08289 4.5811L 7.33173 9.82847C 8.91468 11.411 10.9142 13.993 13.4137 17.6578C 13.9136 16.3252 14.7468 15.0758 16.0798 14.2429C 16.5797 13.9097 17.0796 13.6598 17.5795 13.4932C 13.8303 10.9945 11.2476 8.99549 9.7479 7.41298L 4.33239 1.999L 2.08289 4.5811ZM 13.747 20.6563L 13.6636 20.6563C 13.4137 20.6563 13.1637 20.4897 13.0805 20.3232C 10.0811 15.8255 7.83162 12.7436 6.08201 10.9945L 0.249993 5.16411C -0.0833314 4.83097 -0.0833314 4.33122 0.249993 3.99799L 3.58256 0.249875C 3.74922 0.0833566 3.91579 2.38299e-07 4.16573 2.38299e-07C 4.41568 2.38299e-07 4.58234 0.0833566 4.749 0.249875L 10.7477 6.24687C 12.4973 7.99599 15.4966 10.2449 20.0789 13.2434C 20.3289 13.41 20.4121 13.5766 20.4121 13.8265C 20.4121 14.0763 20.3289 14.3262 20.1622 14.4927L 20.0789 14.576C 19.9123 14.7426 19.7457 14.8259 19.4957 14.8259C 18.496 14.8259 17.5795 15.1591 16.8296 15.6588C 15.4966 16.6583 14.6634 18.1576 14.6634 19.8235C 14.6634 20.0733 14.5801 20.2398 14.4135 20.4065L 14.3302 20.4897C 14.2469 20.5731 13.997 20.6563 13.747 20.6563Z"/>
</defs>
</svg>
