<svg width="46" height="60" viewBox="0 0 46 60" version="1.1" xmlns="http://www.w3.org/2000/svg" xmlns:xlink="http://www.w3.org/1999/xlink">
<title>edge-2</title>
<desc>Created using Figma</desc>
<g id="Canvas" transform="translate(-637 -631)">
<g id="edge-2">
<g id="Vector">
<use xlink:href="#path0_fill" transform="translate(644.675 650.482)" fill="#275DAD"/>
</g>
<g id="Vector">
<use xlink:href="#path1_fill" transform="translate(644.675 661.18)" fill="#275DAD"/>
</g>
<g id="Vector">
<use xlink:href="#path2_fill" transform="translate(659.268 652.579)" fill="#275DAD"/>
</g>
<g id="Vector">
<use xlink:href="#path3_fill" transform="translate(659.268 664.361)" fill="#275DAD"/>
</g>
<g id="Vector">
<use xlink:href="#path4_fill" transform="translate(637 631)" fill="#275DAD"/>
</g>
</g>
</g>
<defs>
<path id="path0_fill" d="M 11.6933 0.292149L 11.7076 0.306445C 12.0971 0.695976 12.0971 1.3275 11.7076 1.71703L 5.1848 8.2398C 4.79527 8.62934 4.16387 8.62934 3.77433 8.23992L 0.292222 4.75851C -0.097427 4.36887 -0.0974271 3.73711 0.292339 3.34758L 0.306987 3.33293C 0.696519 2.94363 1.32793 2.94375 1.71734 3.33316L 3.77422 5.39004C 4.16375 5.77957 4.79527 5.77957 5.1848 5.39004L 10.2827 0.292149C 10.6722 -0.0973822 11.3038 -0.0973822 11.6933 0.292149Z"/>
<path id="path1_fill" d="M 11.6933 0.292149L 11.7076 0.306444C 12.0971 0.695975 12.0971 1.3275 11.7076 1.71703L 5.1848 8.2398C 4.79527 8.62933 4.16387 8.62934 3.77433 8.23992L 0.292222 4.75852C -0.097427 4.36887 -0.0974271 3.73711 0.292339 3.34758L 0.306987 3.33293C 0.696519 2.94363 1.32793 2.94375 1.71734 3.33316L 3.77422 5.39004C 4.16375 5.77957 4.79527 5.77957 5.1848 5.39004L 10.2827 0.292149C 10.6722 -0.0973818 11.3038 -0.0973818 11.6933 0.292149Z"/>
<path id="path2_fill" d="M 1.07402 5.72205e-08L 15.3958 5.72205e-08C 15.989 5.72205e-08 16.4698 0.48082 16.4698 1.07402L 16.4698 1.0957C 16.4698 1.68891 15.989 2.16973 15.3958 2.16973L 1.07402 2.16973C 0.48082 2.16973 2.43187e-07 1.68891 2.43187e-07 1.0957L 2.43187e-07 1.07402C 2.43187e-07 0.48082 0.48082 5.72205e-08 1.07402 5.72205e-08Z"/>
<path id="path3_fill" d="M 1.07356 1.63078e-06L 15.3963 1.63078e-06C 15.9893 1.63078e-06 16.4699 0.480702 16.4699 1.07355L 16.4699 1.09523C 16.4699 1.6882 15.9892 2.16879 15.3963 2.16879L 1.07356 2.16879C 0.480586 2.16879 2.43187e-07 1.68809 2.43187e-07 1.09523L 2.43187e-07 1.07355C 2.43187e-07 0.480702 0.480586 1.63078e-06 1.07356 1.63078e-06Z"/>
<path id="path4_fill" d="M 3 2.00004C 2.4 2.00004 2.00004 2.4 2.00004 3L 2.00004 57C 2.00004 57.6 2.4 58 3 58L 43 58C 43.6 58 44.0001 57.6 44.0001 57L 44.0001 3C 44.0001 2.4 43.6 2.00004 43 2.00004L 3 2.00004ZM 43 60L 3 60C 1.29996 60 0 58.7 0 57L 0 3C 0 1.29996 1.29996 0 3 0L 43 0C 44.7 0 46 1.29996 46 3L 46 57C 46 58.7 44.7 60 43 60Z"/>
</defs>
</svg>
