<svg width="80" height="70" viewBox="0 0 80 70" version="1.1" xmlns="http://www.w3.org/2000/svg" xmlns:xlink="http://www.w3.org/1999/xlink">
<title>edge-7</title>
<desc>Created using Figma</desc>
<g id="Canvas" transform="translate(-921 -920)">
<g id="edge-7">
<g id="Group">
<g id="Vector">
<use xlink:href="#path0_fill" transform="translate(974.906 964.631)" fill="#275DAD"/>
</g>
<g id="Vector">
<use xlink:href="#path1_fill" transform="translate(985.444 964.631)" fill="#275DAD"/>
</g>
<g id="Vector">
<use xlink:href="#path2_fill" transform="translate(926.437 935.008)" fill="#275DAD"/>
</g>
<g id="Vector">
<use xlink:href="#path3_fill" transform="translate(957.797 975.179)" fill="#275DAD"/>
</g>
<g id="Vector">
<use xlink:href="#path4_fill" transform="translate(989.291 939.832)" fill="#275DAD"/>
</g>
<g id="Vector">
<use xlink:href="#path5_fill" transform="translate(921 942.008)" fill="#275DAD"/>
</g>
<g id="Vector">
<use xlink:href="#path6_fill" transform="translate(949.349 974.63)" fill="#275DAD"/>
</g>
<g id="Vector">
<use xlink:href="#path7_fill" transform="translate(956.234 966.949)" fill="#275DAD"/>
</g>
<g id="Vector">
<use xlink:href="#path8_fill" transform="translate(973.734 920)" fill="#275DAD"/>
</g>
</g>
</g>
</g>
<defs>
<path id="path0_fill" d="M 4.90906 11.518L 2.34375 11.518L 2.34375 2.33956L 4.90906 2.33956L 4.90906 11.518ZM 1.64062 2.36088e-06C 0.735936 2.36088e-06 -1.10626e-06 0.734623 -1.10626e-06 1.63769L -1.10626e-06 12.2198C -1.10626e-06 13.1229 0.736093 13.8575 1.64062 13.8575L 5.61219 13.8575C 6.51687 13.8575 7.25281 13.1229 7.25281 12.2198L 7.25281 1.63769C 7.25281 0.734623 6.51687 2.36088e-06 5.61219 2.36088e-06L 1.64062 2.36088e-06Z"/>
<path id="path1_fill" d="M 4.90906 11.518L 2.34375 11.518L 2.34375 2.33956L 4.90906 2.33956L 4.90906 11.518ZM 1.64062 2.36088e-06C 0.735935 2.36088e-06 -2.17438e-06 0.734623 -2.17438e-06 1.63769L -2.17438e-06 12.2198C -2.17438e-06 13.1229 0.735935 13.8575 1.64062 13.8575L 5.61219 13.8575C 6.51687 13.8575 7.25281 13.1229 7.25281 12.2198L 7.25281 1.63769C 7.25281 0.734623 6.51687 2.36088e-06 5.61219 2.36088e-06L 1.64062 2.36088e-06Z"/>
<path id="path2_fill" d="M 5.92063 3.56564C 6.46094 4.70812 7.12453 5.37053 8.26891 5.90988C 7.12453 6.44907 6.46094 7.11163 5.92063 8.25411C 5.38031 7.11178 4.71688 6.44938 3.57219 5.91003C 4.71688 5.37053 5.38031 4.70812 5.92063 3.56564ZM 1.18125 7.51169C 3.37047 8.19219 3.63422 8.45531 4.31562 10.64C 4.53531 11.3456 5.18031 11.8198 5.92047 11.8198C 6.66047 11.8198 7.30547 11.3458 7.52531 10.6408C 8.20719 8.45547 8.47078 8.19219 10.6591 7.512C 11.3661 7.29287 11.8411 6.64902 11.8411 5.90972C 11.8411 5.1712 11.3664 4.52751 10.66 4.30806C 8.47078 3.6274 8.20719 3.36428 7.52531 1.17898C 7.30531 0.473838 6.66047 -1.52315e-07 5.92047 -1.52315e-07C 5.18031 -1.52315e-07 4.53531 0.473994 4.31578 1.17898C 3.63406 3.36428 3.37047 3.6274 1.18125 4.30806C 0.474844 4.52767 5.24521e-08 5.17136 5.24521e-08 5.90988C 0.000156302 6.64887 0.475157 7.29287 1.18125 7.51169Z"/>
<path id="path3_fill" d="M 5.09609 6.58601C 4.72062 5.92033 4.26141 5.46193 3.59453 5.08713C 4.26156 4.71234 4.72078 4.25394 5.09609 3.5881C 5.47156 4.25362 5.93078 4.71218 6.59781 5.08698C 5.93078 5.46177 5.47172 5.92017 5.09609 6.58601ZM 6.61672 1.11753C 6.40859 0.449038 5.7975 2.01817e-06 5.09609 2.01817e-06C 4.39547 2.01817e-06 3.78453 0.44857 3.57563 1.1169C 3.03047 2.86455 2.86984 3.02505 1.12063 3.56892C 0.450313 3.7762 1.10626e-06 4.3862 1.10626e-06 5.08698C 1.10626e-06 5.78713 0.45 6.39713 1.11891 6.60457C 2.86984 7.14891 3.03047 7.3094 3.57594 9.05783C 3.78469 9.72554 4.39563 10.1741 5.09625 10.1741C 5.79766 10.1741 6.40875 9.72492 6.61672 9.05705C 7.16203 7.30925 7.32266 7.1489 9.07266 6.60472C 9.7425 6.39697 10.1925 5.78697 10.1925 5.08682C 10.1925 4.38604 9.74203 3.77604 9.07344 3.56923C 7.3225 3.02504 7.16172 2.86455 6.61672 1.11753Z"/>
<path id="path4_fill" d="M 5.09641 3.58794C 5.47188 4.25363 5.93109 4.71218 6.59812 5.08698C 5.93109 5.46177 5.47188 5.92017 5.09641 6.58601C 4.72094 5.92033 4.26172 5.46177 3.59469 5.08698C 4.26172 4.71202 4.72094 4.25378 5.09641 3.58794ZM -3.8147e-07 5.08698C -3.8147e-07 5.7865 0.449685 6.39635 1.11906 6.60457C 2.87 7.14891 3.03062 7.3094 3.57609 9.05767C 3.78469 9.72554 4.39578 10.1743 5.09641 10.1743C 5.79766 10.1743 6.4086 9.72523 6.61672 9.05736C 7.16203 7.30956 7.32281 7.14906 9.07375 6.60472C 9.74312 6.3965 10.1928 5.78666 10.1928 5.08713C 10.1928 4.38682 9.74281 3.77682 9.07375 3.56938C 7.32297 3.02505 7.16219 2.86455 6.61687 1.11722C 6.40875 0.449038 5.79766 -1.90394e-08 5.09641 -1.90394e-08C 4.39563 -1.90394e-08 3.78469 0.44857 3.57578 1.1169C 3.03063 2.86455 2.87 3.02505 1.12 3.56907C 0.45 3.77667 -3.8147e-07 4.38667 -3.8147e-07 5.08698Z"/>
<path id="path5_fill" d="M 77.6562 45.6521L 57.0881 45.6521L 57.0881 41.6578C 57.0881 40.8384 57.7559 40.1716 58.577 40.1716C 59.3978 40.1716 60.0658 40.8384 60.0658 41.6578L 60.0658 42.7805C 60.0658 43.2422 60.3377 43.6605 60.7598 43.8487C 61.1819 44.0368 61.6756 43.9596 62.0198 43.6514C 62.2945 43.4056 62.6467 43.2703 63.0114 43.2703C 63.3419 43.2703 63.6559 43.378 63.9195 43.582C 64.273 43.8555 64.7516 43.9041 65.1533 43.7077C 65.5548 43.5112 65.8094 43.1038 65.8094 42.6574L 65.8094 41.8054C 65.8094 40.9859 66.4773 40.3191 67.2983 40.3191C 68.0083 40.3191 68.6223 40.8232 68.7583 41.5178C 68.8372 41.921 69.1223 42.2533 69.5094 42.3932C 69.8966 42.5331 70.3286 42.4601 70.648 42.2009C 70.9158 41.9833 71.2398 41.8685 71.585 41.8685C 72.4059 41.8685 73.0739 42.5352 73.0739 43.3654C 73.0739 43.8433 73.3652 44.2731 73.8095 44.4511C 74.2538 44.6291 74.7617 44.5194 75.0928 44.1739C 75.3775 43.8767 75.7592 43.7131 76.1675 43.7131C 76.9884 43.7131 77.6564 44.3798 77.6564 45.1993L 77.6562 45.6521ZM 10.8377 27.8874C 11.9823 27.348 12.6458 26.6858 13.1861 25.5431C 13.7266 26.6858 14.39 27.348 15.5345 27.8874C 14.3902 28.4267 13.7266 29.089 13.1861 30.2316C 12.6459 29.089 11.9823 28.4267 10.8377 27.8874ZM 47.607 45.6521L 33.7788 45.6521L 33.7788 24.5728C 33.7788 23.4977 32.9027 22.6232 31.8256 22.6232L 22.5552 22.6232C 21.4781 22.6232 20.602 23.4977 20.602 24.5728L 20.602 45.6521L 12.0747 45.6521L 12.0747 33.3797C 12.3736 33.6427 12.7642 33.7972 13.1861 33.7972C 13.9266 33.7972 14.5716 33.3231 14.7908 32.6183C 15.4727 30.4328 15.7364 30.1697 17.9263 29.489C 18.6322 29.2691 19.1066 28.6253 19.1066 27.887C 19.1066 27.1485 18.6319 26.5048 17.9255 26.2852C 15.7362 25.6047 15.4727 25.3416 14.7909 23.1571C 14.5712 22.4515 13.9264 21.9773 13.1861 21.9773C 12.7642 21.9773 12.3737 22.1317 12.0747 22.3949L 12.0747 20.8596C 12.077 20.7333 12.1966 20.4455 12.2839 20.3549L 27.4062 5.25979L 42.462 20.3521C 42.9889 20.8802 43.8783 21.2491 44.6248 21.2491L 47.6069 21.2491L 47.607 45.6521ZM 31.435 45.6521L 22.9458 45.6521L 22.9458 24.9628L 31.435 24.9628L 31.435 45.6521ZM 58.9105 2.33956C 59.0378 2.34174 59.3284 2.46137 59.42 2.54902L 61.3577 4.47167L 29.9281 4.47167L 27.8064 2.3447L 58.9105 2.33956ZM 65.9997 9.07764L 61.7188 9.07764C 61.0716 9.07764 60.5469 9.60138 60.5469 10.2474C 60.5469 10.8934 61.0716 11.4172 61.7188 11.4172L 68.3577 11.4172L 70.6417 13.6834L 39.1172 13.6834L 36.8566 11.4172L 55.1562 11.4172C 55.8034 11.4172 56.3281 10.8934 56.3281 10.2474C 56.3281 9.60138 55.8034 9.07764 55.1562 9.07764L 34.5227 9.07764L 32.2619 6.81123L 63.7155 6.81123L 65.9997 9.07764ZM 75.9088 18.9097L 44.6255 18.9097C 44.4997 18.9072 44.2128 18.7884 44.1228 18.7015L 41.4509 16.023L 72.9994 16.023L 75.9088 18.9097ZM 9.73094 45.6521L 2.34375 45.6521L 2.34375 44.7339C 2.34375 43.4949 3.35359 42.487 4.59484 42.487C 5.21266 42.487 5.78984 42.7342 6.21984 43.1832C 6.55078 43.5285 7.05906 43.6316 7.50313 43.4537C 7.9475 43.2757 8.23875 42.839 8.23875 42.3611C 8.23875 41.3882 8.86266 40.5601 9.73094 40.2483L 9.73094 45.6521ZM 76.7528 41.4178L 76.7528 32.644C 76.7528 31.998 76.2281 31.4742 75.5809 31.4742C 74.9337 31.4742 74.4091 31.998 74.4091 32.644L 74.4091 40.7727C 73.708 40.0091 72.7019 39.5287 71.585 39.5287C 71.2125 39.5287 70.8436 39.5836 70.4903 39.6889C 69.7964 38.6488 68.6111 37.9793 67.2984 37.9793C 65.4727 37.9793 63.9411 39.2601 63.558 40.9689C 63.1616 40.9126 62.7472 40.9185 62.3508 40.9879C 62.0327 39.1966 60.4614 37.8319 58.577 37.8319C 56.4638 37.8319 54.7444 39.5482 54.7444 41.6577L 54.7444 45.6519L 49.9506 45.6519L 49.9506 21.2493L 74.4089 21.2493L 74.4089 26.4052C 74.4089 27.0512 74.9336 27.5749 75.5808 27.5749C 76.228 27.5749 76.7527 27.0512 76.7527 26.4052L 76.7527 21.2494L 77.9688 21.2494C 78.6617 21.2494 79.212 20.9184 79.4411 20.3641C 79.6702 19.8098 79.5134 19.1878 79.022 18.7001L 61.0722 0.889811C 60.5442 0.365906 59.6555 -6.66378e-07 58.9109 -6.66378e-07C 58.9108 -6.66378e-07 58.9106 -6.66378e-07 58.9105 -6.66378e-07C 58.9105 -6.66378e-07 24.8853 0.00280764 24.8825 0.00280764C 24.1842 0.00280764 23.3306 0.366842 22.8036 0.889811L 16.83 6.81684C 16.3709 7.27228 16.3687 8.01298 16.825 8.47107C 17.2812 8.92946 18.0233 8.93165 18.4822 8.47606L 24.5788 2.42581L 25.7523 3.60229L 10.627 18.7005C 10.5359 18.788 10.2475 18.9075 10.1216 18.9097L 7.96688 18.9097L 14.5761 12.3521C 15.0352 11.8966 15.0373 11.1559 14.5811 10.6979C 14.125 10.2396 13.383 10.2374 12.9239 10.6929L 4.85359 18.7004C 4.36219 19.188 4.20578 19.81 4.43469 20.3643C 4.66375 20.9186 5.21406 21.2494 5.90703 21.2494L 9.73109 21.2494L 9.73109 25.8314C 9.39359 25.9805 8.97719 26.1207 8.44719 26.2855C 7.74047 26.505 7.26562 27.1488 7.26562 27.8875C 7.26562 28.6259 7.74016 29.2697 8.44688 29.4896C 8.97688 29.6543 9.39344 29.7947 9.73094 29.9438L 9.73094 37.8397C 8.20281 38.0945 6.92703 39.1033 6.30437 40.4746C 5.76859 40.26 5.19109 40.1477 4.59469 40.1477C 2.06125 40.1474 0 42.205 0 44.734L 0 46.822C 0 47.468 0.524687 47.9918 1.17188 47.9918L 78.8281 47.9918C 79.4753 47.9918 80 47.468 80 46.822L 80 45.1991C 80 43.288 78.5892 41.6999 76.7528 41.4178Z"/>
<path id="path6_fill" d="M 1.17187 3.98489C 1.81906 3.98489 2.34375 3.46114 2.34375 2.81511L 2.34375 1.16978C 2.34375 0.52375 1.81906 1.52315e-06 1.17187 1.52315e-06C 0.524687 1.52315e-06 -3.8147e-07 0.52375 -3.8147e-07 1.16978L -3.8147e-07 2.81511C -3.8147e-07 3.46114 0.524687 3.98489 1.17187 3.98489Z"/>
<path id="path7_fill" d="M 2.34375 2.33956L 3.90625 2.33956L 3.90625 4.52314L 2.34375 4.52314L 2.34375 2.33956ZM 4.60938 6.8627C 5.51406 6.8627 6.25 6.12808 6.25 5.22501L 6.25 1.63769C 6.25 0.734621 5.51406 7.61574e-08 4.60938 7.61574e-08L 1.64062 7.61574e-08C 0.735937 7.61574e-08 0 0.734621 0 1.63769L 0 5.22501C 0 6.12808 0.735937 6.8627 1.64062 6.8627L 4.60938 6.8627Z"/>
<path id="path8_fill" d="M 8.04688 2.33956C 11.1916 2.33956 13.75 4.89342 13.75 8.03248C 13.75 11.1715 11.1916 13.7254 8.04688 13.7254C 4.90219 13.7254 2.34375 11.1715 2.34375 8.03248C 2.34375 4.89342 4.90219 2.33956 8.04688 2.33956ZM 8.04688 16.065C 12.4839 16.065 16.0938 12.4616 16.0938 8.03248C 16.0938 3.60339 12.4839 0 8.04688 0C 3.60984 0 0 3.60339 0 8.03248C 0 12.4616 3.60984 16.065 8.04688 16.065Z"/>
</defs>
</svg>
