<svg width="60" height="43" viewBox="0 0 60 43" version="1.1" xmlns="http://www.w3.org/2000/svg" xmlns:xlink="http://www.w3.org/1999/xlink">
<title>edge-4</title>
<desc>Created using Figma</desc>
<g id="Canvas" transform="translate(-1029 -639)">
<g id="edge-4">
<g id="Group">
<g id="Group">
<g id="Vector">
<use xlink:href="#path0_fill" transform="translate(1029 646.188)" fill="#275DAD"/>
</g>
</g>
<g id="Vector">
<use xlink:href="#path1_fill" transform="translate(1037.29 639)" fill="#275DAD"/>
</g>
</g>
</g>
</g>
<defs>
<path id="path0_fill" d="M 59.0276 33.8863C 52.8033 33.8863 49.1003 32.2831 45.5189 30.7319C 42.1045 29.254 38.5744 27.7254 33.1098 27.7254C 28.3908 27.7254 23.8659 29.5585 19.8732 31.1754C 16.4321 32.5694 13.1817 33.8862 10.3027 33.8862L 7.14763 33.8862C 8.99028 33.0727 11.0917 32.0555 13.3911 30.9423C 22.1428 26.7068 33.0346 21.4352 41.4042 21.4352C 51.6377 21.4352 58.3792 26.3288 58.4457 26.3778C 58.8752 26.6962 59.4833 26.6096 59.8054 26.1847C 60.1276 25.7592 60.0408 25.1562 59.6111 24.8373C 59.3669 24.6554 54.4637 21.0786 46.5225 19.8903L 46.5225 18.2601C 48.3056 17.9099 49.6325 16.6181 49.6325 15.082C 49.6325 14.3298 49.263 12.4853 48.6664 10.8164C 47.7925 8.37457 46.7737 7.18822 45.5505 7.18822C 44.6964 7.18822 43.9415 7.76791 43.2664 8.94928C 43.0676 7.76664 42.674 6.16777 42.1431 4.66855C 41.0307 1.52728 39.7715 -3.14869e-07 38.2933 -3.14869e-07C 36.8152 -3.14869e-07 35.556 1.52728 34.4444 4.66855C 33.6604 6.88349 33.175 9.31719 33.175 10.3013C 33.175 12.2842 34.9626 13.9396 37.3214 14.3023L 37.3214 18.9516C 31.6912 16.0698 26.0361 14.8513 20.4907 15.3315C 16.0088 15.7201 12.5503 17.1498 10.39 18.3193C 7.5198 17.2275 4.40413 16.4296 0.971944 16.4296C 0.435397 16.4295 0 16.8607 0 17.3922C 0 17.9237 0.435397 18.3549 0.971944 18.3549C 6.59665 18.3549 11.4669 20.7517 15.7639 22.8655C 17.6553 23.7956 19.3846 24.6468 21.0178 25.2228C 18.0761 26.5327 15.2092 27.9196 12.5381 29.2127C 7.57161 31.6163 2.88102 33.8864 0.971944 33.8864C 0.435397 33.8863 0 34.3175 0 34.849C 0 35.3804 0.435397 35.8117 0.971944 35.8117L 10.3027 35.8117C 13.5638 35.8117 16.9864 34.4252 20.6091 32.9575C 24.6226 31.3317 28.7729 29.6509 33.1098 29.6509C 38.1682 29.6509 41.3604 31.0328 44.7406 32.4963C 48.5044 34.1265 52.3971 35.8118 59.0276 35.8118C 59.5649 35.8118 59.9996 35.3805 59.9996 34.8491C 59.9996 34.3175 59.5649 33.8863 59.0276 33.8863ZM 41.4042 19.5099C 40.7049 19.5099 39.9912 19.5444 39.2653 19.6085L 39.2653 14.3023C 40.1987 14.1589 41.0421 13.814 41.7211 13.3259C 41.5585 14.0748 41.4686 14.7117 41.4686 15.0821C 41.4686 16.6183 42.7954 17.91 44.5786 18.2602L 44.5786 19.6561C 43.5618 19.5627 42.5032 19.5099 41.4042 19.5099ZM 44.1782 11.7169C 44.785 9.92439 45.3424 9.26949 45.5505 9.13165C 45.7587 9.26949 46.3162 9.92439 46.9237 11.7169C 47.4167 13.1722 47.6886 14.63 47.6886 15.082C 47.6886 15.5822 47.2027 16.0391 46.5225 16.2703L 46.5225 15.3382C 46.5225 14.8069 46.0872 14.3755 45.5505 14.3755C 45.0141 14.3755 44.5786 14.8068 44.5786 15.3382L 44.5786 16.2703C 43.8984 16.039 43.4125 15.5822 43.4125 15.082C 43.4125 14.63 43.6852 13.1722 44.1782 11.7169ZM 35.1189 10.3012C 35.1189 9.58345 35.5599 7.33593 36.2787 5.30598C 37.2721 2.49877 38.1206 1.92532 38.2933 1.92532C 38.4669 1.92532 39.3154 2.49877 40.3088 5.30598C 41.0275 7.33547 41.4686 9.58354 41.4686 10.3012C 41.4686 11.2382 40.5283 12.0579 39.2653 12.3437L 39.2653 10.204C 39.2653 9.6726 38.8307 9.24125 38.2933 9.24125C 37.7569 9.24125 37.3214 9.67251 37.3214 10.204L 37.3214 12.3437C 36.0591 12.0585 35.1189 11.2382 35.1189 10.3012ZM 16.6289 21.1413C 15.3861 20.5296 14.0972 19.896 12.7544 19.2987C 14.7179 18.4113 17.3932 17.5325 20.6595 17.2493C 25.5192 16.8288 30.4902 17.8171 35.4681 20.1874C 31.7258 20.9702 27.78 22.3616 23.8962 23.9805C 21.8144 23.6904 19.4055 22.507 16.6289 21.1413Z"/>
<path id="path1_fill" d="M 0.971944 9.11355L 3.20384 9.11355C 3.33734 9.79677 3.60881 10.4323 3.98966 10.9887L 2.41026 12.5525C 2.0306 12.9285 2.0306 13.5385 2.41026 13.9145C 2.60014 14.1019 2.84876 14.1959 3.09739 14.1959C 3.34602 14.1959 3.59547 14.1025 3.78452 13.9145L 5.36392 12.3501C 5.92587 12.7273 6.56686 12.9962 7.25719 13.1278L 7.25719 15.3392C 7.25719 15.8705 7.69258 16.3019 8.22913 16.3019C 8.76568 16.3019 9.20108 15.8706 9.20108 15.3392L 9.20108 13.1278C 9.8915 12.9962 10.5325 12.7273 11.0943 12.3501L 12.6737 13.9145C 12.8628 14.1019 13.1122 14.1959 13.3609 14.1959C 13.6095 14.1959 13.8581 14.1025 14.048 13.9145C 14.4277 13.5385 14.4277 12.9285 14.048 12.5525L 12.4686 10.9887C 12.8495 10.4323 13.1209 9.79677 13.2544 9.11355L 15.4863 9.11355C 16.0228 9.11355 16.4583 8.68229 16.4583 8.15084C 16.4583 7.6193 16.0229 7.18813 15.4863 7.18813L 13.2544 7.18813C 13.1209 6.50427 12.8495 5.86874 12.4686 5.31286L 14.048 3.74847C 14.4277 3.37251 14.4277 2.76332 14.048 2.38726C 13.6683 2.01121 13.0526 2.01121 12.6737 2.38726L 11.0943 3.95165C 10.5324 3.57424 9.89141 3.30553 9.20108 3.17312L 9.20108 0.962708C 9.20099 0.431259 8.76559 0 8.22913 0C 7.69268 0 7.25719 0.431259 7.25719 0.962708L 7.25719 3.17312C 6.56677 3.30553 5.92578 3.57424 5.36392 3.95165L 3.78452 2.38726C 3.4056 2.01121 2.78992 2.01121 2.41026 2.38726C 2.0306 2.76332 2.0306 3.37305 2.41026 3.74847L 3.98966 5.31286C 3.60881 5.86883 3.33734 6.50436 3.20384 7.18813L 0.971944 7.18813C 0.435488 7.18813 -5.57702e-08 7.6193 -5.57702e-08 8.15084C -5.57702e-08 8.68229 0.435397 9.11355 0.971944 9.11355ZM 8.22913 5.00577C 9.98004 5.00577 11.4044 6.41657 11.4044 8.15084C 11.4044 9.88429 9.98004 11.2951 8.22913 11.2951C 6.47823 11.2951 5.05389 9.88429 5.05389 8.15084C 5.0538 6.41657 6.47813 5.00577 8.22913 5.00577Z"/>
</defs>
</svg>
