<svg width="35" height="35" viewBox="0 0 35 35" version="1.1" xmlns="http://www.w3.org/2000/svg" xmlns:xlink="http://www.w3.org/1999/xlink">
<title>edge-1</title>
<desc>Created using Figma</desc>
<g id="Canvas" transform="translate(-443 -644)">
<g id="edge-1">
<g id="Group">
<g id="Vector">
<use xlink:href="#path0_fill" transform="translate(443 644)" fill="#275DAD"/>
</g>
<g id="Vector">
<use xlink:href="#path1_fill" transform="translate(452.205 655.435)" fill="#275DAD"/>
</g>
</g>
</g>
</g>
<defs>
<path id="path0_fill" d="M 17.4996 0C 7.84984 0 0 7.85061 0 17.5C 0 27.1494 7.84984 35 17.4996 35C 27.1494 35 35 27.1494 35 17.5C 35 7.85061 27.1494 0 17.4996 0ZM 17.4996 32.7049C 9.11575 32.7049 2.29513 25.8838 2.29513 17.5C 2.29513 9.11619 9.11575 2.29513 17.4996 2.29513C 25.8838 2.29513 32.7049 9.11619 32.7049 17.5C 32.7049 25.8838 25.8834 32.7049 17.4996 32.7049Z"/>
<path id="path1_fill" d="M 14.6308 0.336164L 5.60697 9.3596L 1.9591 5.7126C 1.51055 5.26493 0.784629 5.26449 0.33641 5.71304C -0.112137 6.16126 -0.112137 6.88762 0.33641 7.33616L 4.79563 11.7945C 5.01952 12.0184 5.31297 12.1303 5.60697 12.1303C 5.90043 12.1303 6.19486 12.0184 6.41875 11.7941C 6.41919 11.7932 6.41996 11.7923 6.42083 11.7911L 16.2535 1.95885C 16.7016 1.51063 16.7016 0.783946 16.2535 0.336164C 15.8053 -0.112054 15.0786 -0.112054 14.6308 0.336164Z"/>
</defs>
</svg>
