<svg width="50" height="42" viewBox="0 0 50 42" version="1.1" xmlns="http://www.w3.org/2000/svg" xmlns:xlink="http://www.w3.org/1999/xlink">
<title>main-3</title>
<desc>Created using Figma</desc>
<g id="Canvas" transform="translate(-373 -375)">
<g id="main-3">
<g id="Group">
<g id="Group">
<g id="Vector">
<use xlink:href="#path0_fill" transform="translate(373 375)" fill="#FFFFFF"/>
</g>
</g>
</g>
<g id="Group">
<g id="Vector">
<use xlink:href="#path1_fill" transform="translate(385.89 392.729)" fill="#A8F2FF"/>
</g>
<g id="Vector">
<use xlink:href="#path2_fill" transform="translate(373 376.142)" fill="#A8F2FF"/>
</g>
<g id="Vector">
<use xlink:href="#path3_fill" transform="translate(378.317 401.591)" fill="#A8F2FF"/>
</g>
</g>
</g>
</g>
<defs>
<path id="path0_fill" d="M 42.4805 40.5387L 31.2099 40.5387L 31.2099 32.8685L 35.5493 30.0646C 36.4131 29.5066 37.0252 28.5977 37.2287 27.5711L 37.7734 24.826L 42.4805 26.5344L 42.4805 40.5387ZM 26.2053 28.8277C 25.6689 28.4813 25.2888 27.9168 25.1623 27.2793L 24.826 25.5844C 24.8526 25.6073 24.8782 25.6318 24.905 25.6544C 26.4741 26.9787 28.4298 27.699 30.4984 27.699C 31.0716 27.699 31.6357 27.6425 32.1857 27.5344C 33.6547 27.2457 35.0194 26.5796 36.1707 25.5844L 35.8344 27.2793C 35.708 27.9168 35.3279 28.4812 34.7916 28.8276L 30.4984 31.6017L 26.2053 28.8277ZM 29.7868 40.5387L 18.5162 40.5387L 18.5162 26.5344L 23.2232 24.826L 23.7678 27.571C 23.9716 28.5977 24.5838 29.5065 25.4473 30.0645L 29.7867 32.8684L 29.7868 40.5387ZM 17.5676 25.3256C 17.5556 25.3299 17.5448 25.3363 17.5332 25.3413L 15.5458 26.0626C 15.4711 26.0897 15.3973 26.1181 15.3243 26.1478C 15.301 26.1572 15.2784 26.1676 15.2553 26.1773C 15.2373 26.1849 15.2193 26.1926 15.2013 26.2004C 15.17 26.214 15.1382 26.2268 15.1072 26.2408C 15.0729 26.2563 15.0394 26.273 15.0054 26.2891C 14.9685 26.3065 14.9312 26.3234 14.8948 26.3415C 14.8604 26.3587 14.8267 26.3769 14.7927 26.3946C 14.7575 26.4129 14.7217 26.4307 14.6869 26.4497C 14.6548 26.4672 14.6235 26.4858 14.5918 26.5038C 14.5558 26.5242 14.5195 26.5441 14.4839 26.5652C 14.4527 26.5837 14.4222 26.6035 14.3913 26.6225C 14.3687 26.6365 14.346 26.6502 14.3237 26.6643L 14.3135 19.1986L 19.4015 19.1912L 19.4089 24.6574L 17.5676 25.3256ZM 17.0932 40.5387L 12.9303 40.5387C 12.7881 40.5387 12.6561 40.4799 12.5585 40.3732C 12.4605 40.2659 12.4115 40.1258 12.4207 39.9788C 12.4209 39.974 12.4212 39.9692 12.4214 39.9644L 12.7666 31.8581C 12.8428 30.6546 13.33 29.5511 14.1045 28.7146C 14.112 28.7074 14.1198 28.7007 14.1269 28.6931C 14.5825 28.2069 15.1352 27.8171 15.7387 27.5532C 15.7513 27.5477 15.764 27.5423 15.7767 27.537C 15.857 27.5027 15.9379 27.4701 16.0198 27.4403L 17.0931 27.0508L 17.0932 40.5387ZM 27.1614 24.1083C 27.5977 23.9382 27.8861 23.5132 27.8861 23.0284L 27.8862 22.2074C 28.0597 22.2727 28.2347 22.3286 28.4106 22.3742C 29.2847 22.6005 29.8735 22.7134 30.4633 22.7134C 31.0463 22.7134 31.6303 22.6031 32.4916 22.3832L 32.566 22.3641C 32.7487 22.3175 32.9303 22.2594 33.1103 22.1915L 33.1104 23.0284C 33.1104 23.5133 33.3987 23.9384 33.8352 24.1084L 34.9753 24.6962C 34.9616 24.7069 34.9482 24.7182 34.9346 24.7289C 34.9032 24.753 34.8714 24.7764 34.8396 24.8001C 34.7798 24.8447 34.7195 24.8885 34.6585 24.9311C 34.6244 24.955 34.5902 24.9785 34.5558 25.0017C 34.4936 25.0437 34.4307 25.0844 34.3673 25.1243C 34.335 25.1446 34.3028 25.1654 34.2703 25.1853C 34.1929 25.2324 34.1143 25.2777 34.0353 25.3218C 34.0167 25.3323 33.9984 25.3434 33.9797 25.3536C 33.8817 25.4072 33.7825 25.4582 33.6822 25.5072C 33.6554 25.5203 33.628 25.5322 33.601 25.5451C 33.5269 25.5801 33.4524 25.6143 33.3773 25.6467C 33.3412 25.6623 33.3047 25.677 33.2683 25.6921C 33.2002 25.7201 33.1318 25.7471 33.063 25.7731C 33.025 25.7875 32.9869 25.8016 32.9486 25.8152C 32.8771 25.8407 32.8052 25.8648 32.7329 25.888C 32.6983 25.8992 32.6639 25.9108 32.6291 25.9214C 32.5339 25.9505 32.438 25.9776 32.3415 26.0027C 32.3299 26.0057 32.3185 26.0093 32.3068 26.0122C 32.1982 26.0399 32.0888 26.0646 31.9787 26.0873C 31.9472 26.0938 31.9153 26.0991 31.8836 26.1053C 31.8046 26.1204 31.7254 26.1347 31.6456 26.1473C 31.6062 26.1535 31.5668 26.159 31.5273 26.1645C 31.4532 26.175 31.3789 26.1843 31.3043 26.1925C 31.2641 26.1969 31.2239 26.2012 31.1836 26.205C 31.1046 26.2124 31.0252 26.2181 30.9456 26.2229C 30.911 26.225 30.8766 26.2277 30.8418 26.2293C 30.7276 26.2346 30.6132 26.2378 30.4981 26.2378C 30.3831 26.2378 30.2686 26.2345 30.1545 26.2293C 30.1198 26.2277 30.0854 26.225 30.051 26.2229C 29.9713 26.2181 29.8918 26.2124 29.8126 26.205C 29.7724 26.2013 29.7322 26.1969 29.6922 26.1926C 29.6175 26.1844 29.5431 26.1751 29.4688 26.1646C 29.4295 26.1591 29.39 26.1536 29.3508 26.1474C 29.271 26.1348 29.1916 26.1205 29.1125 26.1053C 29.0808 26.0991 29.049 26.0938 29.0176 26.0874C 28.9074 26.0647 28.7979 26.04 28.6893 26.0122C 28.678 26.0093 28.6669 26.0058 28.6556 26.0029C 28.5588 25.9777 28.4626 25.9505 28.3671 25.9213C 28.3325 25.9108 28.2983 25.8992 28.2639 25.8881C 28.1914 25.8648 28.1191 25.8406 28.0473 25.815C 28.0095 25.8015 27.9717 25.7875 27.934 25.7733C 27.8647 25.7472 27.7959 25.72 27.7274 25.6918C 27.6914 25.6769 27.6554 25.6623 27.6196 25.6469C 27.5435 25.6141 27.4683 25.5796 27.3934 25.5442C 27.3673 25.5318 27.3408 25.5202 27.3148 25.5075C 27.2142 25.4584 27.1147 25.4072 27.0163 25.3534C 26.9987 25.3438 26.9816 25.3334 26.9641 25.3236C 26.8839 25.2789 26.8043 25.2329 26.7257 25.1851C 26.6937 25.1656 26.6623 25.1453 26.6306 25.1254C 26.5665 25.085 26.5027 25.0438 26.4397 25.0012C 26.406 24.9786 26.3726 24.9555 26.3393 24.9322C 26.2774 24.889 26.2162 24.8445 26.1554 24.7992C 26.1245 24.7761 26.0934 24.7533 26.0629 24.7298C 26.0489 24.719 26.0353 24.7074 26.0215 24.6966L 27.1614 24.1083ZM 24.4453 15.7057C 24.444 15.6945 24.4428 15.6832 24.4416 15.6719C 24.4351 15.6106 24.4301 15.5497 24.4262 15.4889C 24.4257 15.4792 24.4249 15.4694 24.4243 15.4597C 24.4205 15.3896 24.4183 15.3198 24.4183 15.2505L 24.4183 12.3928L 36.5781 12.3928L 36.5781 15.2353C 36.5781 15.3053 36.576 15.3759 36.5721 15.4467C 36.5716 15.4548 36.5709 15.4629 36.5704 15.4711C 36.5666 15.5332 36.5614 15.5957 36.5548 15.6584C 36.5536 15.6694 36.5524 15.6804 36.5512 15.6915C 36.5434 15.7602 36.5342 15.8291 36.523 15.8983C 36.5229 15.8987 36.5229 15.899 36.5229 15.8994C 36.2706 17.4623 35.1815 19.1306 33.8468 20.1305C 33.8372 20.1376 33.8276 20.1449 33.8181 20.152C 33.7758 20.1832 33.733 20.2132 33.6902 20.2431C 33.6667 20.2595 33.6435 20.2764 33.6198 20.2924C 33.6073 20.3008 33.5947 20.3086 33.5821 20.3169C 33.5388 20.3457 33.4953 20.3744 33.4514 20.4019C 33.4491 20.4033 33.4472 20.4051 33.4449 20.4065C 33.0482 20.6542 32.636 20.8402 32.2224 20.9459L 32.1479 20.965C 30.6302 21.3525 30.2817 21.3516 28.7584 20.9572C 28.3486 20.8511 27.9403 20.6659 27.5472 20.4198C 27.5464 20.4192 27.5456 20.4185 27.5447 20.418C 27.529 20.4082 27.5137 20.3976 27.4979 20.3876C 27.4514 20.3578 27.4051 20.3279 27.3591 20.2965C 27.3476 20.2887 27.3364 20.2805 27.3251 20.2727C 25.8517 19.2496 24.6374 17.3931 24.4453 15.7057ZM 22.3271 10.7041L 22.3271 10.3188L 22.5643 10.3188C 22.9573 10.3188 23.2759 9.99169 23.2759 9.58815L 23.2759 8.79401C 23.2759 8.73675 23.2765 8.67969 23.278 8.62263C 23.2807 8.51131 23.287 8.3999 23.2955 8.28859C 23.2976 8.26021 23.3008 8.23203 23.3033 8.20365C 23.3109 8.1179 23.3198 8.03226 23.3308 7.94672C 23.3344 7.91884 23.3384 7.89106 23.3424 7.86319C 23.3552 7.77273 23.3698 7.68258 23.3864 7.59272C 23.3901 7.57257 23.3936 7.55241 23.3974 7.53225C 23.4188 7.42214 23.4426 7.31243 23.4695 7.20342C 23.4696 7.20282 23.4697 7.20222 23.4698 7.20162C 23.73 6.15477 24.2462 5.18904 24.9821 4.39751C 25.8398 3.4751 26.9311 2.85465 28.1151 2.60335L 28.1151 4.56759C 28.1151 5.72686 29.0336 6.66992 30.1625 6.66992L 30.8341 6.66992C 31.963 6.66992 32.8813 5.72676 32.8813 4.56759L 32.8813 2.60355C 34.0652 2.85485 35.1567 3.47531 36.0145 4.39771C 37.0742 5.53742 37.6795 7.03786 37.7187 8.62273C 37.72 8.67969 37.7207 8.73675 37.7207 8.79401L 37.7207 9.58815C 37.7207 9.99169 38.0393 10.3188 38.4322 10.3188L 38.6695 10.3188L 38.6695 10.7041L 22.3271 10.7041ZM 22.9954 14.1236L 22.7113 14.1236C 22.5787 14.1236 22.4709 14.0129 22.4709 13.8769L 22.4709 12.3928L 22.9953 12.3928L 22.9953 14.1236L 22.9954 14.1236ZM 21.9843 7.34342C 21.9708 7.41843 21.9575 7.49344 21.946 7.56906C 21.9395 7.61137 21.9342 7.65369 21.9285 7.69611C 21.9191 7.76501 21.9095 7.8338 21.9019 7.9031C 21.8955 7.96116 21.891 8.01933 21.8858 8.07749C 21.881 8.13214 21.8753 8.1865 21.8716 8.24135C 21.8637 8.35608 21.8582 8.4708 21.8553 8.58562C 21.8536 8.65492 21.8527 8.72452 21.8527 8.79421L 21.8527 8.90934C 21.8512 8.90974 21.85 8.91044 21.8485 8.91084C 21.8052 8.92388 21.7633 8.93982 21.7219 8.95717C 21.7086 8.96279 21.6954 8.9686 21.6822 8.97462C 21.6458 8.99147 21.61 9.00962 21.5755 9.02978C 21.5704 9.03279 21.5648 9.03489 21.5597 9.0379L 17.3252 4.96431C 17.0509 4.70066 16.6243 4.70106 16.3508 4.96571L 2.73313 18.1393C 2.58206 18.2855 2.38567 18.3633 2.17698 18.3562C 1.96946 18.3498 1.77688 18.2608 1.6345 18.1057C 1.49212 17.9505 1.41712 17.7478 1.42327 17.5347C 1.42952 17.3216 1.51614 17.1237 1.66721 16.9776L 16.3031 2.81905C 16.4524 2.67465 16.6442 2.60234 16.836 2.60234C 17.0271 2.60234 17.2183 2.67404 17.3674 2.81755L 21.9967 7.27071C 21.9921 7.29498 21.9887 7.31925 21.9843 7.34342ZM 9.43344 5.953L 9.43578 7.45463L 6.82123 9.98397L 6.81488 5.95681L 9.43344 5.953ZM 29.5383 2.10253C 29.5383 2.05018 29.5451 1.99964 29.5566 1.9509C 29.5573 1.9483 29.5585 1.94589 29.5592 1.94328C 29.5853 1.83839 29.636 1.74532 29.7036 1.66951C 29.7053 1.66761 29.7069 1.6657 29.7086 1.66389C 29.73 1.64043 29.7531 1.61877 29.7776 1.59891C 29.7805 1.5966 29.7835 1.5944 29.7864 1.59219C 29.836 1.55348 29.8912 1.5226 29.9504 1.50043C 29.9549 1.49873 29.9593 1.49692 29.9638 1.49542C 29.9922 1.48559 30.0215 1.47787 30.0515 1.47225C 30.0568 1.47125 30.0623 1.47055 30.0677 1.46975C 30.0988 1.46483 30.1304 1.46152 30.1626 1.46152L 30.8342 1.46152C 30.8664 1.46152 30.898 1.46483 30.9291 1.46975C 30.9345 1.47055 30.9399 1.47125 30.9453 1.47225C 30.9752 1.47787 31.0045 1.48549 31.0329 1.49542C 31.0375 1.49702 31.042 1.49883 31.0466 1.50053C 31.1056 1.5226 31.1606 1.55348 31.2101 1.59209C 31.2132 1.5944 31.2163 1.5967 31.2192 1.59901C 31.2436 1.61877 31.2666 1.64033 31.288 1.66369C 31.2898 1.6657 31.2915 1.66771 31.2932 1.66971C 31.3607 1.74552 31.4113 1.83839 31.4375 1.94318C 31.4382 1.94579 31.4393 1.9481 31.44 1.9507C 31.4517 1.99944 31.4585 2.05018 31.4585 2.10253L 31.4585 4.56799C 31.4585 4.92149 31.1784 5.2091 30.8343 5.2091L 30.1627 5.2091C 29.8184 5.2091 29.5384 4.92149 29.5384 4.56799L 29.5384 2.10253L 29.5383 2.10253ZM 38.5257 13.8768C 38.5257 14.0128 38.4179 14.1235 38.2854 14.1235L 38.0012 14.1235L 38.0012 12.3927L 38.5257 12.3927L 38.5257 13.8768ZM 49.9966 39.8942L 49.963 39.105C 49.9458 38.7018 49.6114 38.3898 49.221 38.4071C 48.8284 38.4247 48.5241 38.7658 48.5413 39.169L 48.5752 39.9645C 48.5755 39.9693 48.5757 39.9741 48.576 39.9789C 48.5852 40.1259 48.5362 40.266 48.4381 40.3733C 48.3406 40.48 48.2086 40.5388 48.0664 40.5388L 43.9035 40.5388L 43.9035 27.0508L 44.9768 27.4403C 46.8263 28.1115 48.1026 29.8449 48.23 31.8579L 48.348 34.6292C 48.3652 35.0323 48.6968 35.3456 49.0899 35.3272C 49.4825 35.3095 49.7868 34.9685 49.7697 34.5653L 49.6514 31.7867C 49.6511 31.7819 49.6509 31.7771 49.6506 31.7722C 49.4894 29.1711 47.8409 26.9299 45.4509 26.0626L 43.4636 25.3414C 43.4519 25.3364 43.441 25.33 43.429 25.3257L 37.4939 23.1716C 37.4929 23.1712 37.4918 23.1708 37.4908 23.1705C 37.4688 23.1627 37.4469 23.156 37.4246 23.1501C 37.4134 23.147 37.4021 23.145 37.3908 23.1425C 36.9981 23.0381 36.5725 23.1541 36.283 23.4519L 36.0995 23.6406L 34.5334 22.8333L 34.5332 21.4235C 35.0064 21.089 35.4521 20.69 35.8568 20.2447C 35.8616 20.2394 35.8664 20.2342 35.8712 20.2289C 36.8932 19.0987 37.6475 17.6759 37.9041 16.2623C 37.9109 16.225 37.9177 16.1876 37.9238 16.1503C 37.9302 16.1116 37.9361 16.0729 37.9417 16.0343C 37.9511 15.9698 37.9593 15.9053 37.9665 15.8409C 37.9683 15.8255 37.9705 15.8099 37.9721 15.7945C 37.9793 15.7245 37.9855 15.6546 37.99 15.585L 38.2854 15.585C 39.2025 15.585 39.9487 14.8187 39.9487 13.8769L 39.9487 11.9624C 39.9487 11.8718 39.941 11.782 39.9273 11.6934C 40.0321 11.4977 40.0925 11.2729 40.0925 11.0333L 40.0925 10.217C 40.0925 9.59638 39.6908 9.0716 39.1438 8.90934L 39.1438 8.79411C 39.1438 8.72442 39.1429 8.65482 39.1412 8.58562C 39.0931 6.63723 38.348 4.79152 37.0437 3.38866C 35.8537 2.10895 34.2972 1.29886 32.6208 1.07774C 32.5952 1.03061 32.5675 0.985079 32.5387 0.940353C 32.5312 0.928921 32.5234 0.91789 32.5158 0.906558C 32.4867 0.863236 32.456 0.821217 32.424 0.780502C 32.4184 0.773382 32.413 0.766061 32.4073 0.759042C 32.3677 0.710003 32.3261 0.66287 32.2823 0.617843C 32.2809 0.616339 32.2793 0.614935 32.2777 0.61333C 32.2351 0.569808 32.1906 0.528491 32.1445 0.48898C 32.1393 0.484567 32.1343 0.480054 32.1291 0.475642C 32.0342 0.395817 31.9323 0.325117 31.8248 0.263844C 31.8151 0.258329 31.8056 0.252813 31.7958 0.247398C 31.7424 0.218115 31.688 0.190638 31.632 0.166269C 31.6292 0.165066 31.6262 0.164063 31.6232 0.162759C 31.5716 0.140496 31.5186 0.121042 31.465 0.103191C 31.4505 0.0982773 31.4358 0.093564 31.4212 0.0890513C 31.3642 0.071602 31.3068 0.055657 31.2481 0.0432219C 31.2448 0.04252 31.2415 0.0421188 31.2382 0.0415171C 31.182 0.0298843 31.125 0.0214605 31.0674 0.0146413C 31.0516 0.0127359 31.0357 0.0111314 31.0198 0.00962716C 30.9585 0.00391103 30.8968 0 30.8343 0L 30.1627 0C 30.1002 0 30.0385 0.00391103 29.9771 0.00962716C 29.9611 0.0111314 29.9453 0.0128362 29.9295 0.0146413C 29.8721 0.0213603 29.8151 0.0298843 29.7591 0.0414169C 29.7556 0.0421188 29.7522 0.04252 29.7488 0.0432219C 29.6902 0.055657 29.6327 0.0715017 29.5759 0.088951C 29.5611 0.0934637 29.5465 0.0982773 29.5318 0.103191C 29.4783 0.121042 29.4255 0.140496 29.3738 0.162659C 29.3709 0.163963 29.3678 0.164965 29.3648 0.166269C 29.3089 0.190638 29.2546 0.218115 29.2012 0.247298C 29.1913 0.252713 29.1815 0.258329 29.1718 0.263844C 29.1196 0.293528 29.0684 0.325017 29.019 0.359214C 29.0189 0.359314 29.0187 0.359414 29.0186 0.359514C 28.9665 0.395616 28.9164 0.434626 28.8677 0.475542C 28.8624 0.479954 28.8572 0.484567 28.852 0.48908C 28.806 0.528491 28.7616 0.569707 28.7191 0.61313C 28.7176 0.614734 28.7159 0.616239 28.7143 0.617843C 28.6707 0.66277 28.6291 0.709903 28.5895 0.758841C 28.5838 0.765961 28.5783 0.773282 28.5726 0.780502C 28.5406 0.821117 28.51 0.863135 28.4809 0.906357C 28.4733 0.917689 28.4654 0.92872 28.458 0.940253C 28.4292 0.984879 28.4014 1.03051 28.3759 1.07764C 26.6996 1.29876 25.1429 2.10895 23.9531 3.38846C 23.3175 4.07209 22.8159 4.86132 22.4618 5.71583L 18.3404 1.75114C 17.4945 0.937445 16.171 0.93925 15.3274 1.75545L 10.8567 6.08026L 10.8559 5.57463C 10.8555 5.28481 10.7453 5.01254 10.5454 4.80797C 10.3458 4.60369 10.0811 4.49127 9.79946 4.49127C 9.79897 4.49127 9.79838 4.49127 9.79789 4.49127L 6.44633 4.49609C 5.8639 4.49699 5.39056 4.98426 5.39124 5.58265L 5.40042 11.3584L 0.691528 15.9137C 0.263695 16.3276 0.01848 16.8876 0.000999513 17.4909C -0.016481 18.0943 0.195824 18.6684 0.598755 19.1075C 1.00169 19.5469 1.5471 19.7987 2.1346 19.8167C 2.15716 19.8174 2.17952 19.8177 2.20188 19.8177C 2.76468 19.8177 3.29759 19.6008 3.70892 19.2028L 5.30355 17.6601L 5.31048 22.7827C 5.31107 23.1858 5.62943 23.5122 6.02201 23.5122C 6.0223 23.5122 6.02269 23.5122 6.02298 23.5122C 6.41595 23.5116 6.73412 23.1841 6.73353 22.7806L 6.72465 16.2854L 16.8401 6.49994L 20.904 10.4094L 20.904 11.0332C 20.904 11.0755 20.9064 11.1175 20.9101 11.1591C 20.9108 11.1668 20.9114 11.1745 20.9123 11.1823C 20.9312 11.3649 20.9843 11.539 21.0688 11.6958C 21.0553 11.7835 21.0478 11.8725 21.0478 11.9623L 21.0478 13.8768C 21.0478 14.8186 21.794 15.5849 22.7113 15.5849L 23.0056 15.5849C 23.0102 15.6571 23.0165 15.7295 23.0239 15.8022C 23.0259 15.8226 23.0288 15.8432 23.0311 15.8637C 23.038 15.9239 23.0456 15.9843 23.0543 16.0449C 23.0594 16.0812 23.0649 16.1176 23.0708 16.1539C 23.0778 16.1971 23.0857 16.2405 23.0936 16.2838C 23.11 16.3736 23.1285 16.4635 23.1489 16.5532C 23.1526 16.5697 23.156 16.5861 23.1599 16.6025C 23.1741 16.6628 23.1894 16.723 23.2053 16.7832C 23.2086 16.7952 23.2118 16.8073 23.2151 16.8194C 23.3418 17.2887 23.5201 17.7547 23.742 18.2067C 23.7443 18.2115 23.7467 18.2163 23.7491 18.2211C 23.8378 18.401 23.9333 18.5784 24.0352 18.753C 24.0487 18.7761 24.062 18.7991 24.0757 18.8221C 24.1032 18.8683 24.1311 18.9144 24.1595 18.9601C 24.181 18.9947 24.2029 19.0291 24.2249 19.0634C 24.2496 19.102 24.274 19.1408 24.2993 19.1791C 24.3444 19.2474 24.3907 19.315 24.4378 19.3822C 24.4579 19.4109 24.4785 19.439 24.4989 19.4675C 24.534 19.5164 24.5695 19.5649 24.6056 19.613C 24.6254 19.6393 24.645 19.6656 24.6649 19.6916C 24.714 19.7556 24.764 19.8192 24.8149 19.882C 24.8222 19.891 24.8293 19.9001 24.8366 19.9091C 24.8926 19.9776 24.9498 20.0449 25.0078 20.1116C 25.0282 20.1352 25.0489 20.1584 25.0695 20.1816C 25.1103 20.2277 25.1516 20.2733 25.1934 20.3184C 25.2166 20.3434 25.2395 20.3685 25.2629 20.3931C 25.3131 20.4461 25.3639 20.4983 25.4153 20.55C 25.4523 20.5872 25.4899 20.6236 25.5276 20.66C 25.5592 20.6905 25.5907 20.7211 25.6227 20.751C 25.6615 20.7875 25.7007 20.8232 25.74 20.8587C 25.7609 20.8775 25.782 20.8962 25.8031 20.9147C 26.0159 21.1029 26.2363 21.2781 26.4632 21.4386L 26.463 22.833L 24.8973 23.6405L 24.7135 23.4515C 24.5376 23.2705 24.3113 23.1565 24.0727 23.1183C 24.0463 23.1141 24.0196 23.1108 23.9928 23.1084C 23.9661 23.1061 23.9392 23.1046 23.9123 23.1042C 23.8854 23.1038 23.8584 23.1043 23.8315 23.1058C 23.7577 23.1099 23.684 23.1218 23.6112 23.1408C 23.5973 23.1438 23.5834 23.1466 23.5695 23.1504C 23.5478 23.1562 23.5218 23.1642 23.5027 23.1712L 20.8311 24.1408L 20.8241 18.9437C 20.8232 18.2737 20.2921 17.7293 19.6398 17.7293C 19.6392 17.7293 19.6387 17.7293 19.6381 17.7293L 14.0727 17.7373C 13.7564 17.7378 13.4591 17.8647 13.2358 18.0948C 13.0125 18.3247 12.8896 18.6304 12.8901 18.9552L 12.9023 27.8985C 12.9013 27.8997 12.9003 27.9009 12.8993 27.9021C 12.88 27.9246 12.8618 27.9479 12.8428 27.9706C 12.8125 28.007 12.7821 28.0432 12.7526 28.0804C 12.734 28.1038 12.7164 28.1279 12.6982 28.1515C 12.6694 28.1888 12.6404 28.2259 12.6125 28.2639C 12.5946 28.2882 12.5776 28.3132 12.56 28.3378C 12.5328 28.3759 12.5051 28.4138 12.4787 28.4526C 12.4616 28.4775 12.4455 28.5032 12.4288 28.5284C 12.4029 28.5674 12.3767 28.6063 12.3516 28.6459C 12.3353 28.6717 12.3199 28.6982 12.304 28.7242C 12.2795 28.7641 12.2548 28.8038 12.2313 28.8442C 12.216 28.8705 12.2016 28.8973 12.1866 28.9238C 12.1635 28.9647 12.1401 29.0054 12.1178 29.0469C 12.1032 29.0742 12.0894 29.1021 12.0751 29.1298C 12.0539 29.171 12.0322 29.2119 12.0117 29.2536C 11.9973 29.2828 11.984 29.3125 11.9701 29.3419C 11.9507 29.3827 11.9311 29.4233 11.9125 29.4646C 11.899 29.4948 11.8865 29.5255 11.8734 29.556C 11.8557 29.5972 11.8376 29.6381 11.8208 29.6797C 11.8081 29.711 11.7963 29.7429 11.7841 29.7745C 11.7681 29.8157 11.7517 29.8567 11.7366 29.8984C 11.7247 29.931 11.7138 29.9641 11.7024 29.997C 11.6881 30.0382 11.6734 30.0793 11.6598 30.1208C 11.6489 30.1544 11.639 30.1885 11.6287 30.2223C 11.616 30.2636 11.6028 30.3047 11.5909 30.3464C 11.581 30.381 11.5722 30.416 11.5628 30.4508C 11.5517 30.4923 11.5401 30.5336 11.5297 30.5755C 11.521 30.6106 11.5134 30.6462 11.5053 30.6816C 11.4957 30.7235 11.4855 30.7653 11.4766 30.8075C 11.469 30.8438 11.4625 30.8805 11.4555 30.917C 11.4475 30.9587 11.439 31.0003 11.4317 31.0422C 11.4251 31.0801 11.4198 31.1183 11.4139 31.1563C 11.4076 31.1973 11.4006 31.2382 11.3951 31.2795C 11.3897 31.3186 11.3856 31.358 11.381 31.3972C 11.3762 31.4379 11.3708 31.4784 11.3667 31.5193C 11.3627 31.5591 11.36 31.5993 11.3568 31.6393C 11.3538 31.6766 11.3499 31.7138 11.3475 31.7512L 6.77484 31.7577C 6.75883 31.7577 6.74584 31.7444 6.74584 31.7279L 6.73988 27.3205C 6.73929 26.9172 6.42093 26.5908 6.02836 26.5908C 6.02806 26.5908 6.02767 26.5908 6.02738 26.5908C 5.63441 26.5914 5.31624 26.919 5.31683 27.3225L 5.32279 31.73C 5.32396 32.5515 5.97513 33.219 6.77484 33.219C 6.77553 33.219 6.77621 33.219 6.77679 33.219L 11.2847 33.2126L 11.0001 39.8942C 10.9686 40.4376 11.1582 40.9763 11.5209 41.3732C 11.8849 41.7716 12.3987 42 12.9303 42L 48.0664 42C 48.5981 42 49.1117 41.7716 49.4757 41.3732C 49.8385 40.9763 50.0282 40.4376 49.9966 39.8942Z"/>
<path id="path1_fill" d="M 1.42344 1.46925L 6.51144 1.46192L 6.51886 6.92805L 7.94103 6.41149L 7.934 1.21443C 7.93312 0.544336 7.40197 -7.34494e-08 6.74972 -7.34494e-08C 6.74914 -7.34494e-08 6.74865 -7.34494e-08 6.74806 -7.34494e-08L 1.18262 0.00802275C 0.866312 0.00852416 0.569045 0.135382 0.345705 0.365431C 0.122365 0.595379 -0.00048651 0.901042 1.77181e-06 1.22586L 0.0122088 10.1692L 1.4336 8.93501L 1.42344 1.46925Z"/>
<path id="path2_fill" d="M 6.02201 22.3702C 6.0223 22.3702 6.02269 22.3702 6.02298 22.3702C 6.41595 22.3696 6.73412 22.042 6.73353 21.6385L 6.72465 15.1434L 16.8401 5.35786L 20.904 9.26729L 21.5157 8.18243L 21.4867 7.82552L 17.3252 3.82212C 17.0509 3.55848 16.6243 3.55888 16.3508 3.82353L 2.73313 16.9972C 2.58206 17.1434 2.38567 17.2212 2.17698 17.2141C 1.96946 17.2077 1.77688 17.1187 1.6345 16.9636C 1.49212 16.8085 1.41712 16.6057 1.42327 16.3926C 1.42952 16.1795 1.51614 15.9816 1.66721 15.8355L 16.3031 1.67697C 16.4524 1.53256 16.6442 1.46026 16.836 1.46026C 17.0271 1.46026 17.2183 1.53196 17.3674 1.67547L 21.9967 6.12863L 22.4618 4.57374L 18.3404 0.609058C 17.4945 -0.204638 16.171 -0.202833 15.3274 0.61337L 10.8567 4.93817L 10.8559 4.43255C 10.8555 4.14273 10.7453 3.87046 10.5454 3.66588C 10.3458 3.46161 10.0811 3.34919 9.79946 3.34919C 9.79897 3.34919 9.79838 3.34919 9.79789 3.34919L 6.44633 3.354C 5.8639 3.35491 5.39056 3.84218 5.39125 4.44057L 5.40042 10.2164L 0.691528 14.7716C 0.263695 15.1855 0.01848 15.7456 0.000999513 16.3489C -0.016481 16.9522 0.195824 17.5263 0.598755 17.9654C 1.00169 18.4048 1.5471 18.6566 2.1346 18.6746C 2.15716 18.6753 2.17952 18.6756 2.20188 18.6756C 2.76468 18.6756 3.29759 18.4587 3.70892 18.0607L 5.30355 16.518L 5.31048 21.6406C 5.31107 22.0437 5.62943 22.3702 6.02201 22.3702ZM 9.43344 4.81091L 9.43578 6.31255L 6.82123 8.84189L 6.81488 4.81472L 9.43344 4.81091Z"/>
<path id="path3_fill" d="M 1.45996 6.6282L 5.96788 6.62178L 6.03068 5.16036L 1.45801 5.16688C 1.442 5.16688 1.42901 5.15354 1.42901 5.13709L 1.42305 0.729658C 1.42246 0.32642 1.1041 -1.05278e-06 0.711526 -1.05278e-06C 0.711233 -1.05278e-06 0.710842 -1.05278e-06 0.710549 -1.05278e-06C 0.31758 0.000600645 -0.000585107 0.328127 8.31851e-07 0.731665L 0.00595796 5.1392C 0.00712983 5.96072 0.658303 6.6282 1.45801 6.6282C 1.4587 6.6282 1.45938 6.6282 1.45996 6.6282Z"/>
</defs>
</svg>
