<svg width="50" height="47" viewBox="0 0 50 47" version="1.1" xmlns="http://www.w3.org/2000/svg" xmlns:xlink="http://www.w3.org/1999/xlink">
<title>main-1</title>
<desc>Created using Figma</desc>
<g id="Canvas" transform="translate(-378 -275)">
<g id="main-1">
<g id="Group">
<g id="Vector">
<use xlink:href="#path0_fill" transform="translate(383.403 304.938)" fill="#FFFFFF"/>
</g>
<g id="Vector">
<use xlink:href="#path1_fill" transform="translate(414.135 304.938)" fill="#FFFFFF"/>
</g>
<g id="Vector">
<use xlink:href="#path2_fill" transform="translate(378 275)" fill="#FFFFFF"/>
</g>
</g>
<g id="Group 2">
<g id="Vector">
<use xlink:href="#path3_fill" transform="translate(383.403 304.938)" fill="#A8F2FF"/>
</g>
<g id="Vector">
<use xlink:href="#path4_fill" transform="translate(414.135 304.938)" fill="#A8F2FF"/>
</g>
<g id="Vector">
<use xlink:href="#path5_fill" transform="translate(393.766 295.054)" fill="#A8F2FF"/>
</g>
</g>
</g>
</g>
<defs>
<path id="path0_fill" d="M 1.49395 1.50624L 6.96807 1.50624L 6.96807 6.99068L 1.49395 6.99068L 1.49395 1.50624ZM 1.21455 8.49702L 7.24756 8.49702C 7.91728 8.49702 8.46211 7.94761 8.46211 7.27247L 8.46211 1.22455C 8.46211 0.549309 7.91719 1.15383e-06 7.24756 1.15383e-06L 1.21455 1.15383e-06C 0.544824 1.15383e-06 -8.64267e-08 0.549407 -8.64267e-08 1.22455L -8.64267e-08 7.27247C -8.64267e-08 7.94761 0.544824 8.49702 1.21455 8.49702Z"/>
<path id="path1_fill" d="M 1.49404 1.50624L 6.96816 1.50624L 6.96816 6.99068L 1.49404 6.99068L 1.49404 1.50624ZM 7.24756 8.49702C 7.91728 8.49702 8.46211 7.94761 8.46211 7.27247L 8.46211 1.22455C 8.46211 0.549309 7.91719 1.15383e-06 7.24756 1.15383e-06L 1.21455 1.15383e-06C 0.544824 1.15383e-06 -1.07288e-06 0.549407 -1.07288e-06 1.22455L -1.07288e-06 7.27247C -1.07288e-06 7.94771 0.544922 8.49702 1.21455 8.49702L 7.24756 8.49702Z"/>
<path id="path2_fill" d="M 48.506 16.3181L 1.49404 16.3181L 1.49404 15.0835L 48.506 15.0835L 48.506 16.3181ZM 47.5734 44.3892C 47.8755 44.3892 48.1212 44.637 48.1212 44.9415C 48.1212 45.246 47.8755 45.4938 47.5734 45.4938L 2.42656 45.4938C 2.12451 45.4938 1.87881 45.246 1.87881 44.9415C 1.87881 44.637 2.12451 44.3892 2.42656 44.3892L 47.5734 44.3892ZM 8.69736 40.6049C 9.75811 40.6049 10.728 41.1475 11.292 42.0564C 11.4139 42.2527 11.6187 42.3817 11.8471 42.4059C 12.2708 42.4508 12.6636 42.6212 12.9833 42.883L 5.74639 42.883C 6.10068 41.5742 7.29531 40.6049 8.69736 40.6049ZM 17.2605 42.2127L 32.7395 42.2127L 32.7395 42.8829L 17.2605 42.8829L 17.2605 42.2127ZM 27.0038 31.7697L 27.0038 40.7064L 22.9962 40.7064L 22.9962 31.7697L 27.0038 31.7697ZM 27.28 30.2633L 22.7201 30.2633C 22.0486 30.2633 21.5022 30.8142 21.5022 31.4912L 21.5022 40.7064L 20.6841 40.7064L 20.6841 29.7474L 29.3161 29.7474L 29.3161 40.7064L 28.4979 40.7064L 28.4979 31.4912C 28.4979 30.8141 27.9515 30.2633 27.28 30.2633ZM 18.2796 28.2411L 24.9267 21.7463L 31.696 28.2411C 31.694 28.2411 30.065 28.2408 30.0631 28.2408C 30.0611 28.2408 30.0593 28.2411 30.0573 28.2411L 18.2796 28.2411C 18.2776 28.2411 19.9389 28.2408 19.9369 28.2408C 19.935 28.2408 19.9331 28.2411 19.9312 28.2411L 18.2796 28.2411ZM 38.1529 42.4058C 38.3814 42.3816 38.5861 42.2526 38.708 42.0563C 39.272 41.1474 40.2419 40.6048 41.3026 40.6048C 42.7047 40.6048 43.8993 41.5742 44.2536 42.8828L 37.0166 42.8828C 37.3365 42.6212 37.7293 42.4508 38.1529 42.4058ZM 21.8684 9.25024L 24.2529 9.25024L 24.2529 13.5772L 21.8684 13.5772L 21.8684 9.25024ZM 21.8684 7.05871C 21.8684 5.57728 22.8857 4.33156 24.2529 3.99276L 24.2529 7.7439L 21.8684 7.7439L 21.8684 7.05871ZM 25.747 9.25024L 28.1315 9.25024L 28.1315 13.5772L 25.747 13.5772L 25.747 9.25024ZM 25.747 3.99286C 27.1142 4.33156 28.1315 5.57738 28.1315 7.05881L 28.1315 7.744L 25.747 7.744L 25.747 3.99286ZM 48.6089 17.8245C 49.376 17.8245 50 17.1953 50 16.4219L 50 14.3304C 50 14.303 49.9983 14.276 49.9955 14.2495C 49.9948 14.2432 49.9935 14.2371 49.9927 14.2308C 49.9899 14.21 49.9868 14.1895 49.9824 14.1693C 49.982 14.1676 49.9819 14.166 49.9815 14.1643L 47.1502 1.54415C 46.9462 0.63497 46.1581 0 45.2335 0L 39.2006 0C 38.788 0 38.4536 0.337128 38.4536 0.753122C 38.4536 1.16912 38.788 1.50624 39.2006 1.50624L 45.2335 1.50624C 45.4552 1.50624 45.6441 1.65846 45.693 1.87636L 48.3182 13.5772L 29.6257 13.5772L 29.6257 7.05871C 29.6257 4.48713 27.5506 2.39495 25 2.39495C 22.4494 2.39495 20.3743 4.48713 20.3743 7.05871L 20.3743 13.5772L 1.68184 13.5772L 4.30713 1.87646C 4.35596 1.65856 4.54492 1.50634 4.7666 1.50634L 34.5594 1.50634C 34.972 1.50634 35.3063 1.16922 35.3063 0.753221C 35.3063 0.337226 34.972 9.84603e-05 34.5594 9.84603e-05L 4.7666 9.84603e-05C 3.84199 9.84603e-05 3.05381 0.635069 2.8499 1.54425L 0.0183594 14.1643C 0.0179687 14.166 0.0178711 14.1676 0.0174805 14.1693C 0.0130859 14.1895 0.00996094 14.21 0.00722656 14.2308C 0.00644531 14.237 0.00507813 14.2432 0.00439453 14.2495C 0.00166016 14.276 0 14.303 0 14.3304L 0 16.4219C 0 17.1953 0.624023 17.8245 1.39111 17.8245L 2.43916 17.8245L 2.43916 31.9559C 2.43916 32.3719 2.77354 32.709 3.18613 32.709C 3.59873 32.709 3.93311 32.3719 3.93311 31.9559L 3.93311 17.8245L 46.0667 17.8245L 46.0667 42.8829L 45.7824 42.8829C 45.401 40.7389 43.5276 39.0986 41.3025 39.0986C 39.8414 39.0986 38.4964 39.7897 37.639 40.964C 36.5603 41.1899 35.6373 41.9009 35.1314 42.8829L 34.2334 42.8829L 34.2334 41.8906C 34.2334 41.2376 33.7064 40.7063 33.0587 40.7063L 30.81 40.7063L 30.81 29.7474L 32.8834 29.7474C 33.3026 29.7474 33.6741 29.4938 33.8297 29.1014C 33.9854 28.7089 33.8899 28.2671 33.586 27.9752L 25.626 20.3381C 25.2285 19.9567 24.6083 19.9596 24.2142 20.3447L 16.398 27.9818C 16.0984 28.2745 16.0061 28.7156 16.1627 29.1055C 16.3194 29.4954 16.6901 29.7474 17.1074 29.7474L 19.1898 29.7474L 19.1898 40.7064L 16.9411 40.7064C 16.2935 40.7064 15.7664 41.2376 15.7664 41.8907L 15.7664 42.883L 14.8684 42.883C 14.3625 41.901 13.4396 41.19 12.3608 40.9641C 11.5034 39.7898 10.1584 39.0987 8.69727 39.0987C 6.47217 39.0987 4.59883 40.739 4.21738 42.883L 3.93311 42.883L 3.93311 36.6355C 3.93311 36.2195 3.59873 35.8824 3.18613 35.8824C 2.77354 35.8824 2.43916 36.2195 2.43916 36.6355L 2.43916 42.883L 2.42656 42.883C 1.30068 42.883 0.384863 43.8064 0.384863 44.9415C 0.384863 46.0766 1.30068 47 2.42656 47L 47.5735 47C 48.6994 47 49.6152 46.0766 49.6152 44.9415C 49.6152 43.8063 48.6994 42.883 47.5735 42.883L 47.5609 42.883L 47.5609 17.8245L 48.6089 17.8245Z"/>
<path id="path3_fill" d="M 1.49404 1.50624L 6.96816 1.50624L 6.96816 6.99068L 1.49404 6.99068L 1.49404 1.50624ZM 1.21455 8.49702L 7.24756 8.49702C 7.91729 8.49702 8.46211 7.94761 8.46211 7.27247L 8.46211 1.22455C 8.46211 0.549309 7.91719 1.15383e-06 7.24756 1.15383e-06L 1.21455 1.15383e-06C 0.544824 1.15383e-06 -3.27826e-08 0.549407 -3.27826e-08 1.22455L -3.27826e-08 7.27247C -3.27826e-08 7.94761 0.544922 8.49702 1.21455 8.49702Z"/>
<path id="path4_fill" d="M 1.49404 1.50624L 6.96816 1.50624L 6.96816 6.99068L 1.49404 6.99068L 1.49404 1.50624ZM 7.24756 8.49702C 7.91729 8.49702 8.46211 7.94761 8.46211 7.27247L 8.46211 1.22455C 8.46211 0.549309 7.91719 1.15383e-06 7.24756 1.15383e-06L 1.21455 1.15383e-06C 0.544824 1.15383e-06 1.21593e-06 0.549407 1.21593e-06 1.22455L 1.21593e-06 7.27247C 1.21593e-06 7.94771 0.544921 8.49702 1.21455 8.49702L 7.24756 8.49702Z"/>
<path id="path5_fill" d="M 18.467 22.8289L 18.467 21.8366C 18.467 21.1837 17.94 20.6524 17.2923 20.6524L 15.0436 20.6524L 15.0436 9.69345L 17.117 9.69345C 17.5362 9.69345 17.9077 9.43981 18.0633 9.04745C 18.219 8.65499 18.1235 8.2131 17.8196 7.92126L 9.85957 0.284191C 9.46211 -0.0972435 8.84189 -0.094388 8.44775 0.290788L 0.63164 7.92786C 0.332031 8.22058 0.239649 8.66168 0.396289 9.05158C 0.553028 9.44149 0.923731 9.69345 1.34102 9.69345L 3.42344 9.69345L 3.42344 20.6525L 1.17471 20.6525C 0.527051 20.6525 6.07967e-07 21.1837 6.07967e-07 21.8367L 6.07967e-07 22.829L 1.49414 22.8289L 1.49414 22.1587L 16.973 22.1587L 16.973 22.8289L 18.467 22.8289ZM 11.2374 20.6525L 7.22978 20.6525L 7.22978 11.7157L 11.2374 11.7157L 11.2374 20.6525ZM 13.5498 20.6525L 12.7315 20.6525L 12.7315 11.4373C 12.7315 10.7602 12.1852 10.2094 11.5137 10.2094L 6.95381 10.2094C 6.28232 10.2094 5.73594 10.7603 5.73594 11.4373L 5.73594 20.6525L 4.91777 20.6525L 4.91777 9.69345L 13.5498 9.69345L 13.5498 20.6525ZM 14.2909 8.1871L 4.16484 8.1871C 4.1668 8.1871 4.16865 8.18681 4.17061 8.18681C 4.17256 8.18681 2.61357 8.1871 2.51787 8.1871L 2.51328 8.1871L 9.16035 1.69237L 15.9297 8.1871C 15.9277 8.1871 14.2987 8.18681 14.2968 8.18681C 14.2948 8.18681 14.293 8.1871 14.2909 8.1871Z"/>
</defs>
</svg>
