<svg width="42" height="35" viewBox="0 0 42 35" version="1.1" xmlns="http://www.w3.org/2000/svg" xmlns:xlink="http://www.w3.org/1999/xlink">
<title>&#208;&#178;&#209;&#139;&#208;&#191;&#208;&#176;&#208;&#180;&#208;&#176;&#209;&#142;&#209;&#137;&#208;&#184;&#208;&#185; &#208;&#184;&#208;&#188;&#208;&#191;&#209;&#131;&#209;&#130;</title>
<desc>Created using Figma</desc>
<g id="Canvas" transform="translate(-1508 -3344)">
<g id="&#208;&#178;&#209;&#139;&#208;&#191;&#208;&#176;&#208;&#180;&#208;&#176;&#209;&#142;&#209;&#137;&#208;&#184;&#208;&#185; &#208;&#184;&#208;&#188;&#208;&#191;&#209;&#131;&#209;&#130;">
<g id="Rectangle 4">
<use xlink:href="#path0_fill" transform="translate(1508 3344)" fill="#E8E8E8"/>
</g>
<g id="Arrow 3">
<use xlink:href="#path1_stroke" transform="matrix(6.12323e-17 1 -1 6.12323e-17 1529 3364)" fill="#999999"/>
</g>
</g>
</g>
<defs>
<path id="path0_fill" d="M 0 0L 1 0L 1 35L 0 35L 0 0Z"/>
<path id="path1_stroke" d="M 0.765165 0.265165C 0.911612 0.118718 0.911612 -0.118718 0.765165 -0.265165L -1.62132 -2.65165C -1.76777 -2.7981 -2.0052 -2.7981 -2.15165 -2.65165C -2.2981 -2.5052 -2.2981 -2.26777 -2.15165 -2.12132L -0.0303301 0L -2.15165 2.12132C -2.2981 2.26777 -2.2981 2.5052 -2.15165 2.65165C -2.0052 2.7981 -1.76777 2.7981 -1.62132 2.65165L 0.765165 0.265165ZM 0 0.375L 0.5 0.375L 0.5 -0.375L 0 -0.375L 0 0.375Z"/>
</defs>
</svg>
